<svg width="154" height="52" viewBox="0 0 154 52" fill="none" xmlns="http://www.w3.org/2000/svg">
<path d="M141.736 0.000129166H12.2705C11.7986 0.000129166 11.3323 0.000129166 10.8616 0.00271249C10.4677 0.00529582 10.0768 0.0127875 9.67902 0.0191166C8.81486 0.029319 7.95274 0.105619 7.10013 0.247354C6.24872 0.392174 5.42398 0.66521 4.65381 1.05723C3.8846 1.45258 3.18176 1.96628 2.57078 2.57971C1.95658 3.19137 1.4446 3.89836 1.05451 4.6735C0.66334 5.44717 0.392106 6.27623 0.25018 7.13205C0.106894 7.98675 0.0297904 8.85131 0.0195614 9.71796C0.0075929 10.114 0.00630597 10.5113 0 10.9075V40.7632C0.00630597 41.1643 0.0075929 41.5528 0.0195614 41.9541C0.0298001 42.8207 0.106903 43.6852 0.25018 44.5398C0.391725 45.3961 0.662975 46.2256 1.05451 46.9995C1.44441 47.7722 1.95647 48.4763 2.57078 49.0846C3.17944 49.7008 3.88274 50.2148 4.65381 50.6071C5.42397 51.0002 6.24863 51.2748 7.10013 51.4219C7.95288 51.5625 8.81492 51.6388 9.67902 51.6503C10.0767 51.6591 10.4677 51.6641 10.8617 51.6641C11.3323 51.6667 11.7986 51.6667 12.2705 51.6667H141.736C142.199 51.6667 142.669 51.6667 143.131 51.6641C143.523 51.6641 143.925 51.6591 144.318 51.6503C145.18 51.6395 146.04 51.5631 146.891 51.4219C147.746 51.2738 148.573 50.9992 149.347 50.6071C150.117 50.2146 150.82 49.7006 151.428 49.0846C152.041 48.474 152.554 47.7703 152.949 46.9995C153.338 46.225 153.606 45.3956 153.746 44.5398C153.889 43.685 153.969 42.8207 153.985 41.954C153.99 41.5528 153.99 41.1643 153.99 40.7632C154 40.294 154 39.8273 154 39.3504V12.3177C154 11.8446 154 11.3754 153.99 10.9075C153.99 10.5113 153.99 10.114 153.985 9.71783C153.969 8.8511 153.889 7.98674 153.746 7.13192C153.606 6.27669 153.337 5.44778 152.949 4.67363C152.155 3.11981 150.895 1.855 149.347 1.0571C148.573 0.666042 147.746 0.393079 146.891 0.247224C146.041 0.104887 145.18 0.0285822 144.318 0.0189875C143.925 0.0126583 143.523 0.00503749 143.131 0.00258333C142.669 0 142.199 0 141.736 0L141.736 0.000129166Z" fill="black"/>
<path d="M10.8679 50.5365C10.4758 50.5365 10.0932 50.5315 9.70416 50.5227C8.89828 50.5122 8.09428 50.4418 7.29875 50.3122C6.55696 50.1839 5.83837 49.9453 5.16669 49.6043C4.50114 49.2662 3.89411 48.8228 3.36885 48.2912C2.83594 47.7659 2.39226 47.1566 2.0554 46.4874C1.71487 45.8139 1.4792 45.092 1.3566 44.3469C1.22425 43.5462 1.15266 42.7366 1.14245 41.925C1.13422 41.6526 1.12354 40.7457 1.12354 40.7457V10.9074C1.12354 10.9074 1.13486 10.0143 1.14245 9.75185C1.15226 8.94159 1.22346 8.13326 1.35544 7.33385C1.47828 6.58665 1.71415 5.86267 2.05489 5.18698C2.39045 4.51828 2.83161 3.90849 3.36125 3.38123C3.89034 2.84897 4.49934 2.40331 5.16605 2.06051C5.83621 1.72067 6.55344 1.48384 7.29373 1.35797C8.09189 1.22702 8.89869 1.15625 9.70737 1.14627L10.8686 1.13025H143.125L144.3 1.14665C145.101 1.15621 145.901 1.22642 146.692 1.35668C147.439 1.48417 148.164 1.72268 148.842 2.06438C150.178 2.75521 151.264 3.84817 151.95 5.19008C152.285 5.86114 152.517 6.57925 152.639 7.32003C152.772 8.12598 152.847 8.94065 152.862 9.75753C152.866 10.1233 152.866 10.5163 152.866 10.9074C152.877 11.3917 152.877 11.8527 152.877 12.3176V39.3503C152.877 39.8196 152.877 40.2775 152.866 40.7391C152.866 41.1592 152.866 41.5439 152.861 41.94C152.846 42.7423 152.773 43.5425 152.641 44.3341C152.521 45.0846 152.287 45.8121 151.946 46.4911C151.607 47.153 151.166 47.7571 150.639 48.281C150.113 48.8155 149.505 49.2614 148.838 49.6017C148.162 49.9453 147.439 50.1847 146.692 50.3119C145.896 50.4423 145.092 50.5127 144.286 50.5226C143.901 50.5316 143.516 50.5362 143.131 50.5364L141.736 50.539L10.8679 50.5365Z" fill="white"/>
<path d="M32.1686 25.6906C32.183 24.5695 32.4797 23.4703 33.0311 22.4952C33.5825 21.5201 34.3707 20.7008 35.3223 20.1136C34.7178 19.247 33.9203 18.5338 32.9931 18.0307C32.0659 17.5276 31.0346 17.2484 29.9811 17.2154C27.7338 16.9786 25.5552 18.5651 24.4099 18.5651C23.2427 18.5651 21.4795 17.2389 19.5807 17.2781C18.3526 17.318 17.1558 17.6764 16.1067 18.3185C15.0577 18.9607 14.1923 19.8646 13.5948 20.9422C11.0065 25.4398 12.9372 32.0496 15.4165 35.6852C16.6568 37.4654 18.1065 39.4539 20.0035 39.3834C21.8597 39.3062 22.5531 38.1953 24.7937 38.1953C27.0136 38.1953 27.6641 39.3834 29.5995 39.3386C31.5914 39.3062 32.8464 37.5505 34.0433 35.7534C34.9345 34.4849 35.6204 33.083 36.0753 31.5995C34.9181 31.1082 33.9306 30.286 33.2359 29.2352C32.5411 28.1844 32.1699 26.9517 32.1686 25.6906ZM28.5129 14.8245C29.599 13.5159 30.1341 11.8339 30.0045 10.1357C28.3452 10.3107 26.8126 11.1067 25.7119 12.365C25.1737 12.9798 24.7615 13.6949 24.4989 14.4696C24.2362 15.2444 24.1283 16.0634 24.1812 16.88C25.0112 16.8886 25.8322 16.7081 26.5826 16.352C27.3329 15.9959 27.993 15.4736 28.5131 14.8244L28.5129 14.8245ZM54.4391 35.0556H48.3475L46.8847 39.3909H44.3044L50.0743 23.351H52.755L58.5248 39.3909H55.9008L54.4391 35.0556ZM48.9784 33.0549H53.8069L51.4266 26.0189H51.36L48.9784 33.0549ZM70.9857 33.5444C70.9857 37.1784 69.0477 39.5132 66.1233 39.5132C65.3824 39.5521 64.6457 39.3808 63.9973 39.019C63.349 38.6571 62.8153 38.1194 62.4573 37.4672H62.402V43.2596H60.0102V27.6966H62.3253V29.6417H62.3693C62.7437 28.9927 63.2864 28.4577 63.9397 28.0936C64.593 27.7296 65.3324 27.5501 66.0793 27.5742C69.0364 27.5742 70.9857 29.9204 70.9857 33.5443V33.5444ZM68.5274 33.5444C68.5274 31.1768 67.3084 29.6202 65.4484 29.6202C63.621 29.6202 62.3919 31.2095 62.3919 33.5443C62.3919 35.9007 63.621 37.4787 65.4484 37.4787C67.3084 37.4787 68.5274 35.9335 68.5274 33.5443V33.5444ZM83.8103 33.5444C83.8103 37.1784 81.8718 39.5132 78.9473 39.5132C78.2065 39.5521 77.4697 39.3808 76.8214 39.019C76.173 38.6571 75.6393 38.1194 75.2813 37.4672H75.226V43.2596H72.8344V27.6966H75.1493V29.6417H75.1933C75.5677 28.9927 76.1105 28.4577 76.7638 28.0936C77.417 27.7296 78.1564 27.5501 78.9033 27.5742C81.8605 27.5742 83.8103 29.9204 83.8103 33.5443V33.5444ZM81.3515 33.5444C81.3515 31.1768 80.1324 29.6202 78.2724 29.6202C76.445 29.6202 75.216 31.2095 75.216 33.5443C75.216 35.9007 76.445 37.4787 78.2724 37.4787C80.1324 37.4787 81.3515 35.9335 81.3515 33.5443V33.5444ZM92.2848 34.9219C92.462 36.5124 94.0016 37.5569 96.1053 37.5569C98.1212 37.5569 99.5715 36.5124 99.5715 35.0782C99.5715 33.8331 98.6968 33.0877 96.6257 32.5769L94.5546 32.0761C91.62 31.3646 90.2576 29.9872 90.2576 27.752C90.2576 24.9845 92.6606 23.0836 96.0715 23.0836C99.4497 23.0836 101.765 24.9845 101.843 27.752H99.4283C99.2838 26.1513 97.9653 25.1851 96.0388 25.1851C94.1121 25.1851 92.7938 26.1627 92.7938 27.5855C92.7938 28.7196 93.6358 29.3868 95.6957 29.8976L97.4563 30.3316C100.735 31.1098 102.096 32.4318 102.096 34.7779C102.096 37.7788 99.716 39.6583 95.9281 39.6583C92.3839 39.6583 89.9911 37.8228 89.8365 34.9217L92.2848 34.9219ZM107.26 24.9292V27.6966H109.476V29.5975H107.26V36.0445C107.26 37.046 107.704 37.5127 108.678 37.5127C108.941 37.5081 109.204 37.4895 109.465 37.4571V39.3469C109.027 39.4289 108.582 39.466 108.136 39.4577C105.778 39.4577 104.857 38.5685 104.857 36.3005V29.5975H103.163V27.6966H104.857V24.9292H107.26ZM110.758 33.5444C110.758 29.8649 112.917 27.5528 116.284 27.5528C119.662 27.5528 121.811 29.8649 121.811 33.5444C121.811 37.234 119.674 39.536 116.284 39.536C112.896 39.536 110.758 37.234 110.758 33.5444ZM119.374 33.5444C119.374 31.0204 118.222 29.5306 116.284 29.5306C114.346 29.5306 113.194 31.0316 113.194 33.5444C113.194 36.0786 114.346 37.5569 116.284 37.5569C118.222 37.5569 119.374 36.0786 119.374 33.5444ZM123.783 27.6966H126.064V29.687H126.12C126.274 29.0653 126.637 28.516 127.147 28.1312C127.658 27.7464 128.284 27.5498 128.922 27.5742C129.198 27.5733 129.473 27.6033 129.742 27.6638V29.9091C129.394 29.8023 129.031 29.7533 128.667 29.764C128.32 29.7498 127.973 29.8113 127.652 29.9442C127.33 30.0771 127.041 30.2783 126.804 30.5339C126.568 30.7895 126.389 31.0935 126.28 31.425C126.171 31.7566 126.136 32.1078 126.175 32.4545V39.3909H123.783V27.6966ZM140.768 35.9561C140.447 38.0791 138.387 39.536 135.751 39.536C132.362 39.536 130.258 37.2567 130.258 33.5999C130.258 29.9318 132.373 27.5528 135.651 27.5528C138.874 27.5528 140.902 29.7754 140.902 33.3211V34.1435H132.672V34.2886C132.634 34.719 132.688 35.1525 132.83 35.5605C132.972 35.9685 133.198 36.3415 133.495 36.6548C133.791 36.9681 134.151 37.2145 134.549 37.3777C134.948 37.5408 135.377 37.6169 135.807 37.601C136.372 37.6542 136.939 37.5228 137.424 37.2264C137.909 36.9301 138.285 36.4845 138.498 35.9561H140.768ZM132.684 32.4659H138.509C138.53 32.0789 138.472 31.6917 138.337 31.3284C138.202 30.9652 137.994 30.6338 137.726 30.3551C137.458 30.0764 137.135 29.8564 136.778 29.7089C136.421 29.5613 136.037 29.4895 135.651 29.4978C135.261 29.4954 134.875 29.5706 134.515 29.7188C134.155 29.867 133.827 30.0854 133.551 30.3613C133.275 30.6372 133.057 30.9653 132.908 31.3265C132.759 31.6877 132.683 32.075 132.684 32.4659ZM48.6793 11.2777C49.1807 11.2416 49.6838 11.3176 50.1524 11.5003C50.621 11.683 51.0434 11.9678 51.389 12.3341C51.7347 12.7005 51.995 13.1393 52.1513 13.6189C52.3075 14.0984 52.3557 14.6068 52.2925 15.1074C52.2925 17.5695 50.9665 18.9849 48.6793 18.9849H45.9056V11.2776L48.6793 11.2777ZM47.0983 17.8949H48.5461C48.9044 17.9164 49.2629 17.8574 49.5956 17.7223C49.9283 17.5871 50.2268 17.3792 50.4694 17.1137C50.712 16.8482 50.8925 16.5317 50.9978 16.1874C51.1032 15.843 51.1307 15.4794 51.0784 15.123C51.1269 14.768 51.0966 14.4066 50.9896 14.0648C50.8827 13.7229 50.7017 13.4091 50.4597 13.1456C50.2177 12.8822 49.9206 12.6758 49.5898 12.5412C49.2589 12.4065 48.9025 12.347 48.5461 12.3668H47.0983V17.8949ZM53.6398 16.0742C53.6033 15.6919 53.6469 15.3063 53.7676 14.9419C53.8884 14.5776 54.0837 14.2426 54.341 13.9585C54.5983 13.6743 54.912 13.4473 55.2618 13.2919C55.6117 13.1366 55.99 13.0563 56.3726 13.0563C56.7551 13.0563 57.1335 13.1366 57.4833 13.2919C57.8332 13.4473 58.1468 13.6743 58.4041 13.9585C58.6614 14.2426 58.8567 14.5776 58.9775 14.9419C59.0983 15.3063 59.1418 15.6919 59.1054 16.0742C59.1426 16.4568 59.0996 16.8431 58.9792 17.2081C58.8588 17.5731 58.6637 17.9088 58.4063 18.1936C58.1489 18.4784 57.835 18.706 57.4848 18.8617C57.1345 19.0174 56.7557 19.0979 56.3726 19.0979C55.9895 19.0979 55.6106 19.0174 55.2604 18.8617C54.9101 18.706 54.5962 18.4784 54.3388 18.1936C54.0814 17.9088 53.8863 17.5731 53.7659 17.2081C53.6455 16.8431 53.6025 16.4568 53.6398 16.0742ZM57.9291 16.0742C57.9291 14.8134 57.3648 14.0761 56.3745 14.0761C55.3803 14.0761 54.8212 14.8134 54.8212 16.0742C54.8212 17.345 55.3805 18.0766 56.3745 18.0766C57.3648 18.0766 57.9291 17.34 57.9291 16.0742ZM66.3709 18.9848H65.1843L63.9867 14.7011H63.8962L62.7036 18.9848H61.5285L59.9312 13.1684H61.0911L62.1293 17.6066H62.2147L63.4062 13.1684H64.5033L65.6947 17.6066H65.7852L66.8182 13.1684H67.9619L66.3709 18.9848ZM69.3053 13.1686H70.4063V14.0925H70.4918C70.6367 13.7606 70.8813 13.4824 71.1913 13.2966C71.5013 13.1109 71.8613 13.0268 72.2211 13.0562C72.5031 13.0349 72.7862 13.0776 73.0495 13.1811C73.3128 13.2845 73.5496 13.4461 73.7422 13.6539C73.9348 13.8616 74.0784 14.1102 74.1623 14.3812C74.2462 14.6522 74.2683 14.9387 74.227 15.2195V18.9847H73.0833V15.5078C73.0833 14.5731 72.6785 14.1083 71.8327 14.1083C71.6413 14.0993 71.4502 14.132 71.2725 14.2041C71.0949 14.2763 70.9349 14.3861 70.8034 14.5261C70.672 14.6661 70.5723 14.8329 70.5111 15.0152C70.45 15.1975 70.4288 15.3909 70.449 15.5822V18.9848H69.3053V13.1686ZM76.0492 10.898H77.1928V18.9848H76.0492V10.898ZM78.7827 16.0742C78.7462 15.6919 78.7898 15.3062 78.9106 14.9418C79.0314 14.5774 79.2267 14.2424 79.484 13.9582C79.7414 13.674 80.0551 13.4469 80.405 13.2916C80.7549 13.1362 81.1333 13.0559 81.5159 13.0559C81.8985 13.0559 82.2769 13.1362 82.6268 13.2916C82.9767 13.4469 83.2904 13.674 83.5477 13.9582C83.8051 14.2424 84.0004 14.5774 84.1212 14.9418C84.242 15.3062 84.2855 15.6919 84.2491 16.0742C84.2861 16.4568 84.243 16.8429 84.1225 17.2078C84.002 17.5727 83.8067 17.9083 83.5493 18.193C83.2919 18.4776 82.9781 18.7051 82.6279 18.8608C82.2777 19.0164 81.8989 19.0968 81.5159 19.0968C81.1329 19.0968 80.7541 19.0164 80.4039 18.8608C80.0537 18.7051 79.7398 18.4776 79.4824 18.193C79.225 17.9083 79.0298 17.5727 78.9093 17.2078C78.7888 16.8429 78.7457 16.4568 78.7827 16.0742ZM83.072 16.0742C83.072 14.8134 82.5077 14.0761 81.5174 14.0761C80.5233 14.0761 79.9641 14.8134 79.9641 16.0742C79.9641 17.345 80.5234 18.0766 81.5174 18.0766C82.5077 18.0766 83.072 17.34 83.072 16.0742ZM85.453 17.34C85.453 16.293 86.2297 15.6894 87.6083 15.6036L89.178 15.5128V15.0107C89.178 14.3964 88.7734 14.0496 87.9917 14.0496C87.3533 14.0496 86.9108 14.2848 86.7839 14.6961H85.6767C85.7935 13.697 86.7299 13.0563 88.0445 13.0563C89.4973 13.0563 90.3167 13.7822 90.3167 15.0107V18.9848H89.2157V18.1674H89.1253C88.9416 18.4606 88.6837 18.6996 88.3779 18.8601C88.0721 19.0205 87.7294 19.0966 87.3847 19.0806C87.1414 19.106 86.8955 19.08 86.6629 19.0042C86.4303 18.9284 86.2161 18.8045 86.0341 18.6405C85.8521 18.4765 85.7063 18.276 85.6063 18.052C85.5062 17.828 85.454 17.5855 85.453 17.34ZM89.178 16.843V16.3567L87.7629 16.4475C86.9649 16.5011 86.6029 16.7736 86.6029 17.2863C86.6029 17.8098 87.0554 18.1145 87.6775 18.1145C87.8597 18.133 88.0439 18.1145 88.2189 18.0602C88.394 18.0058 88.5563 17.9166 88.6963 17.798C88.8363 17.6794 88.9511 17.5337 89.0339 17.3696C89.1166 17.2055 89.1656 17.0264 89.178 16.843ZM91.8198 16.0742C91.8198 14.2363 92.7611 13.0721 94.2252 13.0721C94.5874 13.0553 94.9468 13.1424 95.2615 13.3231C95.5762 13.5038 95.8332 13.7706 96.0023 14.0925H96.0878V10.8978H97.2314V18.9847H96.1356V18.0657H96.0451C95.8629 18.3853 95.597 18.6489 95.2762 18.8278C94.9555 19.0067 94.5921 19.0941 94.2254 19.0805C92.7511 19.0805 91.8198 17.9162 91.8198 16.074V16.0742ZM93.0012 16.0742C93.0012 17.3077 93.5806 18.0502 94.5494 18.0502C95.5133 18.0502 96.1092 17.2971 96.1092 16.0791C96.1092 14.867 95.5071 14.1032 94.5494 14.1032C93.5868 14.1032 93.0012 14.8506 93.0012 16.0742ZM101.963 16.0742C101.927 15.6919 101.97 15.3063 102.091 14.9419C102.212 14.5776 102.407 14.2426 102.664 13.9585C102.922 13.6743 103.235 13.4473 103.585 13.2919C103.935 13.1366 104.313 13.0563 104.696 13.0563C105.079 13.0563 105.457 13.1366 105.807 13.2919C106.157 13.4473 106.47 13.6743 106.728 13.9585C106.985 14.2426 107.18 14.5776 107.301 14.9419C107.422 15.3063 107.465 15.6919 107.429 16.0742C107.466 16.4568 107.423 16.8431 107.303 17.2081C107.182 17.5731 106.987 17.9088 106.73 18.1936C106.472 18.4784 106.158 18.706 105.808 18.8617C105.458 19.0174 105.079 19.0979 104.696 19.0979C104.313 19.0979 103.934 19.0174 103.584 18.8617C103.234 18.706 102.92 18.4784 102.662 18.1936C102.405 17.9088 102.21 17.5731 102.089 17.2081C101.969 16.8431 101.926 16.4568 101.963 16.0742ZM106.253 16.0742C106.253 14.8134 105.688 14.0761 104.698 14.0761C103.704 14.0761 103.145 14.8134 103.145 16.0742C103.145 17.345 103.704 18.0766 104.698 18.0766C105.688 18.0766 106.253 17.34 106.253 16.0742ZM108.963 13.1686H110.064V14.0925H110.15C110.295 13.7606 110.539 13.4824 110.849 13.2966C111.159 13.1109 111.519 13.0268 111.879 13.0562C112.161 13.0349 112.444 13.0776 112.707 13.1811C112.971 13.2845 113.208 13.4461 113.4 13.6539C113.593 13.8616 113.736 14.1102 113.82 14.3812C113.904 14.6522 113.926 14.9387 113.885 15.2195V18.9847H112.741V15.5078C112.741 14.5731 112.336 14.1083 111.491 14.1083C111.299 14.0993 111.108 14.132 110.931 14.2041C110.753 14.2763 110.593 14.3861 110.461 14.5261C110.33 14.6661 110.23 14.8329 110.169 15.0152C110.108 15.1975 110.087 15.3909 110.107 15.5822V18.9848H108.963L108.963 13.1686ZM120.347 11.7205V13.195H121.603V14.1619H120.347V17.1526C120.347 17.7619 120.597 18.0287 121.167 18.0287C121.312 18.0282 121.458 18.0193 121.603 18.0021V18.9583C121.397 18.9952 121.189 19.0148 120.981 19.017C119.709 19.017 119.202 18.5679 119.202 17.4466V14.1619H118.282V13.1949H119.202V11.7206L120.347 11.7205ZM123.165 10.898H124.299V14.1032H124.389C124.541 13.7682 124.792 13.4885 125.108 13.302C125.425 13.1155 125.79 13.0315 126.156 13.0612C126.436 13.0459 126.717 13.0929 126.977 13.1989C127.238 13.3049 127.471 13.4672 127.662 13.6743C127.853 13.8814 127.995 14.1282 128.08 14.3971C128.165 14.6659 128.189 14.9502 128.152 15.2297V18.9848H127.007V15.5128C127.007 14.5837 126.576 14.1133 125.768 14.1133C125.571 14.0971 125.373 14.1243 125.188 14.1928C125.003 14.2613 124.835 14.3696 124.697 14.51C124.558 14.6505 124.451 14.8197 124.384 15.0059C124.317 15.1921 124.291 15.3907 124.309 15.5879V18.9848H123.165V10.898ZM134.82 17.4143C134.665 17.9459 134.328 18.4057 133.869 18.7133C133.41 19.021 132.858 19.1568 132.309 19.097C131.927 19.1072 131.548 19.0338 131.197 18.882C130.847 18.7302 130.533 18.5036 130.278 18.218C130.024 17.9323 129.834 17.5945 129.722 17.2279C129.611 16.8613 129.58 16.4747 129.632 16.095C129.581 15.7141 129.613 15.3266 129.724 14.9589C129.835 14.5912 130.024 14.2518 130.277 13.9636C130.531 13.6755 130.843 13.4453 131.192 13.2888C131.542 13.1322 131.921 13.0529 132.304 13.0562C133.917 13.0562 134.889 14.1619 134.889 15.9883V16.3888H130.797V16.4531C130.779 16.6666 130.806 16.8814 130.876 17.0839C130.945 17.2864 131.056 17.472 131.202 17.6289C131.347 17.7857 131.523 17.9104 131.72 17.9949C131.916 18.0794 132.127 18.1218 132.341 18.1194C132.614 18.1524 132.891 18.1029 133.137 17.9774C133.382 17.8518 133.585 17.6558 133.719 17.4143H134.82ZM130.797 15.5399H133.724C133.739 15.3447 133.712 15.1487 133.647 14.9643C133.581 14.78 133.478 14.6114 133.343 14.4695C133.209 14.3276 133.047 14.2155 132.867 14.1404C132.687 14.0652 132.493 14.0287 132.298 14.0332C132.1 14.0307 131.904 14.068 131.721 14.1428C131.537 14.2177 131.371 14.3286 131.231 14.469C131.091 14.6094 130.981 14.7765 130.906 14.9604C130.832 15.1444 130.795 15.3414 130.797 15.5399Z" fill="black"/>
</svg>
