<svg width="85" height="84" viewBox="0 0 85 84" fill="none" xmlns="http://www.w3.org/2000/svg">
<path d="M83.9213 39.9709C83.697 39.2663 83.0715 38.7924 82.2057 38.6703L80.3478 38.4069L79.523 36.7707C79.1365 36.0101 78.497 35.5739 77.7677 35.5739C77.0358 35.5739 76.3962 36.012 76.013 36.7733L75.1876 38.4065L73.329 38.67C72.4639 38.7924 71.839 39.2663 71.614 39.9703C71.391 40.6704 71.6224 41.4126 72.2466 42.0038L73.5732 43.2675L73.263 45.0395C73.1445 45.7076 73.2835 46.3193 73.6546 46.7622C74.2095 47.4248 75.1767 47.5793 76.0969 47.1073L77.7677 46.2502L79.4371 47.107C79.798 47.2922 80.1594 47.3861 80.5125 47.3861C81.0566 47.3861 81.5418 47.1646 81.8795 46.7628C82.2512 46.3203 82.3909 45.7092 82.2736 45.0418L81.9615 43.2669L83.2843 42.0072C83.9123 41.4138 84.1443 40.6714 83.9213 39.9709Z" fill="#F4F4F4"/>
<path d="M71.1348 63.2466L69.2263 63.2921L68.1932 61.8194C67.6165 60.9946 66.9134 60.8715 66.5455 60.8715C65.8983 60.8715 65.0812 61.2628 64.7274 62.3609L64.1513 64.149L62.3652 64.7235C61.5404 64.9888 61.0046 65.5579 60.8944 66.285C60.7854 67.0063 61.1225 67.7006 61.8198 68.1896L63.2957 69.224L63.2508 71.0508C63.2284 71.8531 63.536 72.3421 63.7975 72.611C64.1244 72.9474 64.5666 73.1329 65.0421 73.1326C65.4907 73.1326 65.9514 72.9644 66.3725 72.6469L67.8728 71.5196L69.614 72.0934C70.5228 72.3883 71.4059 72.1434 71.8801 71.4869C72.0942 71.1911 72.4056 70.5537 72.0935 69.6098L71.5219 67.8705L72.6492 66.3708C73.1683 65.6812 73.2792 64.9119 72.9542 64.2591C72.6332 63.6158 71.9698 63.2466 71.1348 63.2466Z" fill="#F4F4F4"/>
<path d="M74.156 15.2427C74.0464 14.5156 73.5106 13.9463 72.6852 13.6803L70.8972 13.1048L70.323 11.319C69.9705 10.2199 69.1521 9.82837 68.5035 9.82837C68.1363 9.82837 67.4333 9.95109 66.8571 10.7733L65.8228 12.2489L63.9969 12.2047L63.9136 12.2034C63.0786 12.2034 62.4159 12.5725 62.0948 13.216C61.7693 13.8684 61.8808 14.6378 62.3993 15.326L63.5272 16.8266L62.9536 18.5659C62.6441 19.5141 62.9568 20.1505 63.1708 20.4456C63.6463 21.1022 64.5365 21.3457 65.437 21.0464L67.1756 20.4754L68.6766 21.604C69.0989 21.9212 69.559 22.0888 70.007 22.0888C70.4825 22.0888 70.9241 21.9036 71.2515 21.5674C71.5131 21.2989 71.8206 20.8102 71.7989 20.0117L71.754 18.1798L73.2274 17.1461C73.9259 16.6581 74.2642 15.9644 74.156 15.2427Z" fill="#F4F4F4"/>
<path d="M48.1559 4.397C47.9316 3.69238 47.3061 3.21844 46.4403 3.09638L44.5824 2.83296L43.7576 1.1968C43.3712 0.436143 42.7316 0 42.0023 0C41.271 0 40.6314 0.437718 40.2476 1.19936L39.4222 2.83296L37.5643 3.09605C36.6991 3.21844 36.0736 3.69238 35.8487 4.39634C35.6256 5.09649 35.857 5.83864 36.4812 6.42986L37.8078 7.6936L37.497 9.46691C37.3791 10.1347 37.5188 10.7464 37.8898 11.1889C38.4448 11.8516 39.4125 12.0025 40.3315 11.5334L42.0023 10.6762L43.6717 11.533C44.0326 11.7182 44.394 11.8121 44.7471 11.8121C45.2912 11.8121 45.7764 11.5907 46.1141 11.1889C46.4858 10.7464 46.6255 10.1353 46.5082 9.46783L46.1961 7.69301L47.5189 6.43334C48.1469 5.83989 48.3789 5.09748 48.1559 4.397Z" fill="#F4F4F4"/>
<path d="M4.56592 47.1073L6.23667 46.2502L7.90609 47.107C8.26696 47.2922 8.62836 47.3861 8.98148 47.3861C9.52558 47.3861 10.0108 47.1646 10.3485 46.7628C10.7202 46.3203 10.8599 45.7092 10.7426 45.0418L10.4305 43.2669L11.7533 42.0072C12.3813 41.4138 12.6133 40.6714 12.3903 39.9709C12.166 39.2663 11.5405 38.7924 10.6747 38.6703L8.81677 38.4069L7.99199 36.7707C7.60553 36.0101 6.96595 35.5739 6.23667 35.5739C5.5054 35.5739 4.86582 36.0116 4.48198 36.7733L3.65655 38.4069L1.79865 38.67C0.933448 38.7924 0.307978 39.2663 0.0830254 39.9703C-0.139978 40.6704 0.0913499 41.4126 0.715574 42.0038L2.04218 43.2675L1.73138 45.0408C1.61345 45.7086 1.75318 46.3203 2.12421 46.7628C2.6792 47.4258 3.6469 47.5767 4.56592 47.1073Z" fill="#F4F4F4"/>
<path d="M48.1559 76.5844C47.9316 75.8798 47.3061 75.4058 46.4403 75.2838L44.5824 75.0203L43.7576 73.3842C43.3712 72.6235 42.7316 72.1874 42.0023 72.1874C41.271 72.1874 40.6314 72.6251 40.2476 73.3867L39.4222 75.0203L37.5643 75.2834C36.6991 75.4058 36.0736 75.8798 35.8487 76.5837C35.6256 77.2839 35.857 78.026 36.4812 78.6172L37.8078 79.881L37.497 81.6543C37.3791 82.3221 37.5188 82.9338 37.8898 83.3763C38.4448 84.0386 39.4125 84.1905 40.3315 83.7207L42.0023 82.8636L43.6717 83.7204C44.0326 83.9056 44.394 83.9995 44.7471 83.9995C45.2912 83.9995 45.7764 83.7781 46.1141 83.3763C46.4858 82.9338 46.6255 82.3227 46.5082 81.6552L46.1961 79.8804L47.5189 78.6207C48.1469 78.0273 48.3789 77.2849 48.1559 76.5844Z" fill="#F4F4F4"/>
<path d="M12.7523 21.5668C13.0797 21.9036 13.522 22.0888 13.9975 22.0888C14.4461 22.0888 14.9069 21.9205 15.3286 21.603L16.8288 20.4751L18.5682 21.0483C19.4788 21.3467 20.3613 21.0993 20.8362 20.4431C21.0496 20.1473 21.3617 19.5099 21.0496 18.5647L20.478 16.8266L21.6059 15.3264C22.1244 14.6368 22.2352 13.8671 21.9096 13.215C21.5886 12.5713 20.9246 12.2022 20.0889 12.2022L18.1817 12.248L17.1486 10.7749C16.5725 9.95044 15.8695 9.82739 15.5016 9.82739C14.855 9.82739 14.0379 10.2183 13.6828 11.3174L13.1073 13.1051L11.3212 13.6793C10.4971 13.944 9.96066 14.5127 9.85041 15.2395C9.74081 15.9612 10.0779 16.6559 10.7752 17.1452L12.2511 18.1795L12.2069 20.005C12.1838 20.8083 12.4908 21.2976 12.7523 21.5668Z" fill="#F4F4F4"/>
<path d="M11.0509 64.2601C10.7253 64.9125 10.8369 65.6822 11.3553 66.3705L12.4826 67.8704L11.9091 69.6113C11.6002 70.5595 11.9129 71.1959 12.1269 71.4907C12.6037 72.1466 13.492 72.3889 14.3924 72.0908L16.1317 71.5195L17.6313 72.6468C18.0536 72.965 18.5145 73.1332 18.9631 73.1332C19.4386 73.1332 19.8808 72.9477 20.2083 72.6113C20.4698 72.3424 20.7767 71.8537 20.7543 71.0565L20.7101 69.2243L22.1828 68.1906C22.8813 67.7025 23.2197 67.0085 23.1114 66.2869C23.0025 65.5601 22.4667 64.9907 21.6412 64.7247L19.8532 64.1489L19.279 62.3625C18.9253 61.2641 18.1069 60.8728 17.459 60.8728C17.0917 60.8728 16.3893 60.9952 15.8126 61.8171L14.7782 63.2931L12.9517 63.2485L12.871 63.2472C12.0353 63.2472 11.372 63.6164 11.0509 64.2601Z" fill="#F4F4F4"/>
<path d="M33.9618 19.7051C33.9599 19.7092 33.9586 19.7137 33.9567 19.7179C33.949 19.7134 33.9406 19.7089 33.933 19.7048C32.8845 19.1267 31.8002 18.5291 30.5562 18.5291C29.9301 18.5291 29.3258 18.6903 28.8086 18.9953C26.9616 20.0889 26.9398 22.2512 26.9238 23.83C26.9238 23.8422 26.9238 23.8543 26.9238 23.8671C26.9174 23.8659 26.911 23.8649 26.9045 23.864C26.2631 23.7659 25.5991 23.664 24.9313 23.664C23.5894 23.664 22.5492 24.1014 21.8404 24.9634C20.485 26.6082 21.1932 28.6423 21.7097 30.1275C21.7161 30.1445 21.7219 30.1621 21.7283 30.1801C21.7212 30.1816 21.7142 30.1829 21.7071 30.1842C20.1582 30.4937 18.0363 30.9177 17.3108 32.9502C16.5968 34.9548 17.9459 36.6192 18.9315 37.8342C18.945 37.8515 18.9597 37.8692 18.9745 37.8874C18.9693 37.8903 18.9649 37.8932 18.9604 37.8961C17.6062 38.7167 15.7522 39.8408 15.7522 41.9999C15.7522 44.1589 17.6062 45.283 18.9604 46.1037C18.9649 46.1066 18.97 46.1094 18.9745 46.1127C18.9597 46.1309 18.945 46.1492 18.9309 46.1668C17.9459 47.3822 16.5962 49.0469 17.3108 51.0496C18.0363 53.0827 20.1582 53.5067 21.7071 53.8162C21.7142 53.8175 21.7212 53.8188 21.7283 53.82C21.7219 53.838 21.7155 53.8556 21.7097 53.8726C21.1925 55.3575 20.4843 57.3913 21.8411 59.0387C22.5492 59.8993 23.5894 60.3361 24.9307 60.3361C25.5991 60.3361 26.2631 60.2341 26.9045 60.1358C26.911 60.1349 26.9174 60.1339 26.9232 60.1329C26.9238 60.1461 26.9238 60.1589 26.9238 60.1713C26.9398 61.7508 26.9616 63.9137 28.8067 65.0038C29.3258 65.3102 29.9308 65.4717 30.5569 65.4717C31.8008 65.4717 32.8851 64.8738 33.9336 64.2953C33.9413 64.2912 33.949 64.287 33.9567 64.2829C33.9586 64.287 33.9599 64.2912 33.9618 64.2953C34.5225 65.7819 35.2909 67.8182 37.4186 68.1986C37.609 68.2325 37.8044 68.2498 37.9986 68.2498C39.8052 68.2498 40.9973 66.8701 41.9553 65.7613C41.9701 65.744 41.9861 65.7261 42.0015 65.7075C42.0175 65.7261 42.0336 65.7443 42.0489 65.762C43.0064 66.8703 44.1991 68.2498 46.005 68.2498C46.1992 68.2498 46.3947 68.2325 46.5856 68.1986C48.7127 67.8182 49.4817 65.7816 50.0431 64.2944C50.0444 64.2906 50.0456 64.2867 50.0476 64.2829C50.0553 64.2873 50.063 64.2915 50.0706 64.296C51.1191 64.8741 52.2035 65.4717 53.4468 65.4717C54.0735 65.4717 54.6785 65.3098 55.1963 65.0038C57.0414 63.9141 57.0638 61.7505 57.0798 60.1708C57.0805 60.1582 57.0805 60.1458 57.0805 60.1329C57.0869 60.1339 57.0926 60.1349 57.0991 60.1358C57.7412 60.2345 58.4045 60.3361 59.0729 60.3361C60.4142 60.3361 61.4544 59.8993 62.1632 59.0377C63.5193 57.3919 62.8111 55.3578 62.2939 53.8726C62.2882 53.8556 62.2824 53.838 62.276 53.82C62.283 53.8188 62.2895 53.8175 62.2965 53.8162C63.8455 53.5067 65.9668 53.0827 66.6928 51.0515C67.4081 49.0469 66.0584 47.3819 65.0734 46.1661C65.0593 46.1489 65.0445 46.1309 65.0298 46.1127C65.0343 46.1098 65.0388 46.1069 65.0439 46.104C66.3974 45.283 68.2521 44.1589 68.2521 41.9999C68.2521 39.8408 66.3974 38.7167 65.0439 37.8958C65.0388 37.8929 65.0343 37.8903 65.0298 37.8874C65.0445 37.8695 65.0586 37.8519 65.0728 37.8345C66.0578 36.6195 67.4074 34.9551 66.6935 32.9515C65.9668 30.9177 63.8455 30.4937 62.2965 30.1842C62.2901 30.1829 62.283 30.1816 62.276 30.1804C62.2824 30.1624 62.2882 30.1451 62.2946 30.1281C62.8118 28.6423 63.5205 26.6072 62.1606 24.9599C61.4531 24.1008 60.4136 23.664 59.0723 23.664C58.4045 23.6644 57.7406 23.7659 57.0991 23.8643C57.0926 23.8652 57.0869 23.8659 57.0805 23.8669C57.0805 23.8543 57.0805 23.8416 57.0805 23.8293C57.0638 22.2509 57.0421 20.0893 55.2001 18.9978C54.6785 18.6903 54.0742 18.5291 53.448 18.5291C52.2041 18.5291 51.1198 19.1267 50.0713 19.7048C50.063 19.7089 50.0553 19.7134 50.0476 19.7176C50.0456 19.7137 50.0444 19.7099 50.0431 19.706C49.4817 18.2185 48.7127 16.1816 46.585 15.8012C46.394 15.7673 46.1992 15.7499 46.005 15.7499C44.1991 15.7499 43.007 17.1297 42.0489 18.2384C42.0336 18.256 42.0175 18.274 42.0015 18.2926C41.9861 18.2743 41.9701 18.2563 41.9553 18.2388C40.9973 17.1297 39.8046 15.7499 37.9986 15.7499C37.8044 15.7499 37.6096 15.7669 37.4199 15.8009C35.2909 16.1816 34.5225 18.2182 33.9618 19.7051ZM36.97 40.8957C37.4872 40.5723 38.0723 40.1959 38.3511 40.0013C38.4761 39.7825 41.6958 34.4588 41.8939 33.6215V32.5487C41.8939 32.3564 41.8835 32.1594 41.874 31.9613C41.8227 30.8898 41.7516 29.4219 43.0134 28.3567C43.5838 27.8745 44.2407 27.6012 44.9117 27.5663C45.4352 27.5396 45.9787 27.6521 46.5094 27.9011C48.7825 28.9663 49.1247 32.292 49.2709 33.7122C49.3337 34.3072 48.9267 36.3798 48.4948 38.0204L53.9896 38.0262C55.7379 38.0262 57.0138 39.1657 57.0907 40.7973C57.1439 41.9464 56.7466 42.6731 56.3736 43.0961C56.6139 43.4873 56.7575 43.9366 56.7575 44.4333C56.7575 45.3766 56.3371 46.2229 55.6744 46.7942C55.8366 47.1723 55.9263 47.5892 55.9263 48.0273C55.9263 49.067 55.4155 49.9896 54.6324 50.5548C54.7528 50.8875 54.8182 51.2463 54.8182 51.6206C54.8182 53.3368 53.4262 54.7329 51.7151 54.7329L40.8569 54.7288C40.7364 54.7288 40.6159 54.7121 40.4999 54.6791C39.9584 54.5256 39.5406 54.2424 39.2047 54.0146C39.0426 53.9043 38.8882 53.7996 38.7664 53.7425C38.6498 53.7428 38.5594 53.7528 38.4697 53.7608C38.0377 53.7989 37.6462 53.7902 37.302 53.7015C36.9457 54.0258 36.5054 54.2568 36.0234 54.3231C36.0234 54.3231 30.141 55.1249 30.0474 55.1249C29.0194 55.1249 28.2209 54.3443 28.2209 53.2759V41.3766C28.2209 40.3244 28.9938 39.5687 29.9968 39.5687C30.1038 39.5687 32.8185 39.994 32.8204 39.994C32.9531 39.994 36.0299 40.5105 36.0299 40.5105C36.3689 40.5647 36.6855 40.705 36.97 40.8957Z" fill="#F4F4F4"/>
<path d="M40.6788 51.8423C40.83 51.9449 40.9754 52.0436 41.0947 52.1038L41.6407 52.1042C41.674 52.1042 41.708 52.1054 41.7407 52.108L48.2346 52.1119C48.2679 52.1093 48.3012 52.108 48.3346 52.108H51.7152C51.9785 52.108 52.1932 51.8895 52.1932 51.6207C52.1932 51.3614 51.9933 51.1493 51.7382 51.138C51.6485 51.1342 51.562 51.121 51.4781 51.1002H50.3725C49.6477 51.1002 49.06 50.5126 49.06 49.7878C49.06 49.0629 49.6477 48.4753 50.3725 48.4753H52.5028C52.6078 48.4753 52.7091 48.4909 52.8072 48.5144H52.8245C53.0872 48.5144 53.3013 48.2958 53.3013 48.0273C53.3013 47.7674 53.1007 47.5556 52.845 47.5444C52.7098 47.5386 52.5829 47.5069 52.4611 47.4633H50.602C49.8771 47.4633 49.2895 46.8756 49.2895 46.1508C49.2895 45.426 49.8771 44.8383 50.602 44.8383H53.9043C54.0383 44.7518 54.1325 44.6067 54.1325 44.4333C54.0915 44.3644 53.7557 44.1164 53.3679 44.0529H50.602C49.8771 44.0529 49.2895 43.4653 49.2895 42.7404C49.2895 42.0156 49.8771 41.4279 50.602 41.4279H54.2562C54.335 41.4068 54.385 41.3808 54.4042 41.361C54.4266 41.3372 54.4818 41.2123 54.4683 40.9204C54.4632 40.8069 54.4555 40.6512 53.9883 40.6512L46.7176 40.6435C46.2235 40.6429 45.7717 40.3651 45.5481 39.9241C45.3507 39.5345 45.3615 39.0759 45.5686 38.6994C45.8275 38.0438 46.6645 34.6219 46.6574 33.9449C46.3818 31.2798 45.8185 30.4761 45.3949 30.2778C45.2706 30.2195 45.1539 30.1874 45.0661 30.1874C44.9566 30.1926 44.8329 30.256 44.7073 30.3621C44.4631 30.5685 44.4554 30.9895 44.4964 31.8348C44.508 32.0755 44.5189 32.3151 44.5189 32.5487V33.6856C44.5189 34.5883 43.7536 36.1289 41.2434 40.2786C40.9575 40.7515 40.6333 41.2876 40.5711 41.4107C40.4346 41.7173 40.3763 41.8483 38.876 42.7991V51.1185C39.1548 51.1287 39.4047 51.1758 39.636 51.2624C40.0591 51.4216 40.3884 51.6453 40.6788 51.8423Z" fill="#F4F4F4"/>
<path d="M31.508 44.2205V42.4434L30.8459 42.337V52.3852L35.5108 51.744V43.0859L34.133 42.8648V44.2205C34.133 44.9454 33.5453 45.533 32.8205 45.533C32.0956 45.533 31.508 44.9454 31.508 44.2205Z" fill="#F4F4F4"/>
</svg>
