<svg width="222" height="45" viewBox="0 0 222 45" fill="none" xmlns="http://www.w3.org/2000/svg">
<path d="M65.3608 43.3803C58.256 42.4174 53.755 40.6438 52.339 38.1842C51.9165 37.4575 51.8011 36.8022 51.9686 36.238C52.1572 35.6333 52.666 35.119 53.4944 34.6974C53.5703 34.6739 53.714 34.5258 53.714 34.3042C53.714 34.0526 53.5068 33.8591 53.2547 33.8591C53.1622 33.8591 53.0739 33.8685 52.982 33.8816C52.2846 34.0947 51.2728 34.3153 50.0909 34.4879C46.7047 35.0136 43.1197 35.1732 39.4719 34.9506C24.0688 33.9873 11.8963 26.5297 12.3546 18.3236C12.511 15.5335 14.1671 12.838 17.0172 10.7456C21.2201 7.65298 25.3175 6.94517 27.5085 6.82704C27.7831 6.81399 27.9405 6.58882 27.9405 6.3679C27.9405 6.14436 27.7831 5.93323 27.4945 5.90582C24.4601 5.70676 16.1634 6.29937 9.44302 9.45724C3.6123 12.1919 0.264502 16.1245 0.0133433 20.5031C-0.223808 24.9379 2.7067 29.28 8.28658 32.7385C13.8026 36.1463 21.2595 38.3027 29.2816 38.7883C31.9205 38.9599 34.5615 38.9335 37.132 38.7093C37.2678 38.7243 37.3708 38.7752 37.4499 38.8679C40.3502 43.5517 50.1841 45.4548 65.3093 44.2849C65.5588 44.2849 65.7572 44.0774 65.7572 43.8392C65.7442 43.5239 65.493 43.3934 65.3608 43.3803Z" fill="white"/>
<path d="M59.8533 6.14199C54.3604 2.73491 46.9444 0.605005 38.9551 0.108816C37.8835 0.0406226 36.7999 0.00133006 35.753 0.00133006C25.9326 -0.0632914 19.7858 2.23873 15.4962 4.30791C15.3525 4.3865 15.2649 4.55536 15.2649 4.7135C15.2649 4.96484 15.4618 5.17332 15.7055 5.17332C15.7317 5.17332 15.8249 5.15838 15.8511 5.14702C19.4068 4.11567 21.7868 4.01728 25.3308 3.88933C29.6129 3.73411 33.1138 4.30791 35.6881 4.83203C47.9008 7.26361 56.1801 13.7059 55.8103 20.4733C55.6562 23.2199 54.06 25.8282 51.1986 27.986C47.2497 30.9962 43.2197 31.7704 40.5516 31.8983C40.487 31.8983 40.3819 31.9117 40.3819 31.9117C40.1493 31.9406 39.9806 32.1341 39.9806 32.3582C39.9806 32.6066 40.1642 32.7888 40.3819 32.817C40.4481 32.8255 40.487 32.8255 40.5392 32.8255C43.6764 33.1037 52.2413 32.3426 58.7428 29.269C64.5357 26.5448 67.8559 22.6474 68.0907 18.3006C68.3406 13.8894 65.411 9.56985 59.8533 6.14199Z" fill="white"/>
<path d="M62.2341 5.86351C62.2341 6.53758 62.7729 7.04549 63.4132 7.04549C64.0502 7.04549 64.5826 6.53758 64.5826 5.86553C64.5826 5.20022 64.0502 4.69702 63.4132 4.69702C62.7729 4.69702 62.2341 5.20022 62.2341 5.86351ZM62.4492 5.86553C62.4502 5.30133 62.8687 4.87161 63.4132 4.87161C63.956 4.87161 64.3702 5.30301 64.3702 5.86553C64.3702 6.4395 63.953 6.87091 63.4132 6.87091C62.8687 6.87091 62.4492 6.43748 62.4492 5.86553ZM62.9562 6.55275H63.1693V5.9663L63.3968 5.96226L63.7677 6.55275H63.9915L63.6039 5.94945C63.8056 5.92721 63.9601 5.82744 63.9601 5.57534C63.9601 5.31245 63.8076 5.18471 63.4886 5.18471H62.9565V6.55275H62.9562ZM63.1693 5.35627H63.4497C63.5905 5.35627 63.7496 5.38424 63.7496 5.56556C63.7496 5.78565 63.5791 5.79138 63.3931 5.79138H63.1696V5.35627H63.1693Z" fill="white"/>
<path d="M194.552 15.2458C192.999 14.6587 191.183 14.5309 189.913 14.5309H189.758C183.04 14.577 179.519 18.2244 179.519 25.07C179.519 28.0471 180.083 30.2611 181.319 32.0512C182.416 33.7057 184.356 35.6045 189.647 35.6045H189.759C196.476 35.5615 199.888 31.9917 199.888 24.9846C199.888 18.6608 196.977 16.2003 194.552 15.2458ZM189.759 31.1163H189.728C187.647 31.1163 186.578 29.2936 186.578 25.0358C186.578 24.0233 186.578 21.6405 187.283 20.4079C187.835 19.4264 188.724 18.8689 189.758 18.8689C190.983 18.8689 191.732 19.6749 191.917 19.9265C192.606 20.7517 192.952 22.4014 192.952 24.9603C192.953 29.2491 191.995 31.1018 189.759 31.1163Z" fill="white"/>
<path d="M126.015 15.3456C125.938 15.7199 125.123 18.8973 125.059 19.2877C124.994 19.6122 125.356 19.8985 125.684 19.8985C127.662 19.8985 127.735 19.9254 127.735 21.9044V34.5598C127.735 34.904 128.02 35.1867 128.362 35.1867H134.376C134.738 35.1867 134.985 34.9216 134.985 34.5598V15.356C134.985 14.9869 134.738 14.7338 134.376 14.7338H126.622C126.281 14.7338 126.095 15.018 126.015 15.3456Z" fill="white"/>
<path d="M103.025 14.7338C102.702 14.7338 102.494 14.9527 102.418 15.3456C102.353 15.7298 102.136 16.9649 101.45 19.2861C101.357 19.6122 101.7 19.8985 102.027 19.8985C104.015 19.8985 104.078 19.9715 104.078 21.9044C104.078 26.2026 103.546 31.3207 105.771 33.5296C106.989 34.904 108.668 35.607 110.715 35.607C113.16 35.607 114.662 34.6405 115.931 33.6756C115.931 34.0809 115.914 34.5603 115.914 34.5603C115.914 34.9045 116.198 35.1872 116.527 35.1872H122.162C122.506 35.1872 122.773 34.9045 122.773 34.5603V15.3462C122.773 14.9993 122.523 14.7343 122.162 14.7343H116.462C116.134 14.7343 115.85 14.9874 115.85 15.328C115.85 15.328 115.914 27.4548 115.836 29.2511C115.836 29.2589 114.19 30.3387 113.33 30.3387C111.217 30.3387 110.918 28.0765 110.918 25.6161L110.934 15.3462C110.934 15.0185 110.67 14.7343 110.327 14.7343H103.025V14.7338Z" fill="white"/>
<path d="M165.284 16.5105C165.284 16.0565 165.268 15.3892 165.268 15.3457C165.268 15.018 165.007 14.7338 164.658 14.7338H157.879C157.359 14.7338 157.095 14.8767 156.927 15.2013C156.769 15.5435 155.203 18.8022 155.092 18.9911C154.938 19.3172 155.092 19.898 155.656 19.898H155.967C158.397 19.898 158.431 19.898 158.431 21.904C158.431 21.904 158.397 34.5163 158.397 34.5924C158.397 34.9217 158.678 35.1986 159.009 35.1986C159.085 35.1986 164.739 35.1671 164.739 35.1671C165.068 35.1671 165.35 34.9036 165.35 34.5593C165.35 34.5308 165.35 23.6672 165.332 21.0131C166.055 20.5322 166.864 19.9974 167.9 19.9974C168.434 19.9974 168.86 20.16 169.171 20.5011C169.875 21.2041 169.971 22.5117 169.952 23.2266C169.934 24.1191 169.971 34.5924 169.971 34.5924C169.971 34.9336 170.251 35.1986 170.592 35.1986C170.643 35.1986 175.916 35.1671 176.262 35.1671C176.607 35.1671 176.872 34.9036 176.872 34.5593C176.872 34.5308 176.859 23.7909 176.859 23.7909C176.823 20.379 176.794 18.504 175.808 16.8837C174.899 15.3447 173.227 14.5304 170.97 14.5304C168.808 14.5309 166.944 15.5435 165.284 16.5105Z" fill="white"/>
<path d="M203.066 17.5991C202.676 18.1499 202.019 19.3172 202.019 21.0136C202.019 25.1746 205.273 26.4242 207.011 27.0811C207.026 27.0811 207.921 27.4383 208.422 27.6097C209.345 27.9042 210.958 28.4239 210.958 29.5592C210.958 30.3683 210.114 31.1955 208.234 31.1955C207.118 31.1955 205.621 30.7907 204.446 30.183C203.898 29.9029 203.614 29.6679 203.178 29.3252C203.081 29.2507 202.943 29.1989 202.799 29.1989C202.643 29.1989 202.491 29.26 202.361 29.3878C202.25 29.495 202.19 29.6824 202.19 29.8082C202.205 29.9495 202.02 32.8624 201.97 33.3319C201.955 33.4722 201.938 33.6741 201.938 33.7507C201.938 33.9888 202.019 34.2228 202.3 34.3222C204.055 35.0102 205.789 35.607 208.483 35.607C215.608 35.607 217.504 32.3665 217.865 29.5592C217.908 29.1528 217.896 28.983 217.896 28.7014C217.896 24.4618 214.798 23.2613 212.881 22.5272C211.49 22.0148 211.035 21.8569 211.035 21.8569C209.737 21.4236 208.89 21.0648 208.89 20.2381C208.89 20.0176 209.002 18.8689 211.285 18.8689C213.387 18.8689 214.746 19.7505 215.578 20.2692C215.75 20.3795 215.876 20.3795 215.938 20.3795C216.217 20.3795 216.468 20.1739 216.516 19.8758C216.516 19.8431 216.86 16.044 216.86 16.044C216.86 15.7479 216.659 15.4943 216.378 15.4513C216.341 15.4347 216.233 15.4031 216.123 15.3721C214.634 14.9688 213.122 14.5309 210.755 14.5309C208.36 14.5309 204.963 14.8586 203.066 17.5991Z" fill="white"/>
<path d="M74 22.2006C74 33.9567 82.1427 35.7136 86.5393 35.7136C88.0306 35.7136 90.1429 35.4041 90.704 35.1572C91.3472 34.8574 91.1142 34.3009 90.9551 34.1425C90.8324 34.0017 87.4337 30.6312 87.4337 30.6312C87.3245 30.5225 87.1971 30.448 87.0255 30.448C86.9173 30.4656 86.7759 30.4656 86.7759 30.4656C85.6345 30.4656 84.0204 30.0887 82.9518 28.3406C81.734 26.4242 81.5743 23.8519 81.5743 21.5783C81.5743 15.1075 84.1457 13.2491 86.6651 13.2491C88.794 13.2491 91.8797 14.0023 91.8797 21.7642C91.8797 22.874 91.8168 24.119 91.7076 24.9602H85.3682C84.9762 24.9602 84.4572 25.4401 84.9283 26.0012C84.9283 26.0012 95.436 36.4632 95.5899 36.6242C95.7308 36.7795 95.8863 36.8385 96.0449 36.8385H102.966C103.297 36.8385 103.578 36.589 103.578 36.2298C103.578 36.0729 103.514 35.9181 103.388 35.7944C103.388 35.7944 97.596 30.0266 97.5794 30.0105C97.5659 29.9955 97.4702 29.921 97.4551 29.8692C97.4551 29.8392 97.4868 29.7781 97.5014 29.7424C98.7863 27.503 99.3937 24.7878 99.3937 21.5297C99.3937 19.4254 99.0032 14.1612 95.4802 10.9025C93.4938 9.06173 90.3472 8 86.856 8C78.8053 7.99896 74 13.304 74 22.2006Z" fill="white"/>
<path d="M153.461 14.7338H139.168C138.823 14.7338 138.65 14.9527 138.539 15.356C138.431 15.8235 137.571 18.7886 137.571 19.1148C137.571 19.4574 137.852 19.7225 138.18 19.7225C138.213 19.7225 144.318 19.6604 144.678 19.6604C144.289 20.4405 137.338 34.3009 137.338 34.3009C137.302 34.3589 137.272 34.4676 137.272 34.5732C137.257 34.904 137.54 35.1867 137.881 35.1867H155.216C155.563 35.1867 155.83 34.904 155.83 34.5598L155.844 30.8233C155.844 30.478 155.578 30.2155 155.234 30.2155H155.249C155.249 30.2155 148.421 30.3998 146.574 30.4495C146.889 29.8092 149.255 24.9778 150.158 23.1965C151.052 21.4391 153.825 16.0124 154.013 15.6402C154.234 15.1562 153.824 14.7338 153.461 14.7338Z" fill="white"/>
<path d="M217.641 13.6167C217.641 14.652 218.477 15.4337 219.469 15.4337C220.456 15.4337 221.283 14.652 221.283 13.6167C221.283 12.601 220.456 11.825 219.47 11.8281C218.477 11.825 217.641 12.601 217.641 13.6167ZM217.974 13.6167C217.974 12.7548 218.624 12.0937 219.468 12.0937C220.31 12.0937 220.955 12.7579 220.955 13.6167C220.955 14.4998 220.307 15.1671 219.468 15.1671C218.624 15.1671 217.974 14.4998 217.974 13.6167ZM218.761 14.6774H219.091V13.7761L219.447 13.7735L220.015 14.6774H220.368L219.768 13.7507C220.078 13.7171 220.319 13.5618 220.319 13.1746C220.319 12.7744 220.084 12.5777 219.583 12.5777H218.762V14.6774H218.761ZM219.091 12.8396H219.527C219.744 12.8396 219.989 12.8842 219.989 13.1611C219.989 13.4976 219.726 13.5049 219.439 13.5049H219.091V12.8396Z" fill="white"/>
</svg>
