<svg width="154" height="52" viewBox="0 0 154 52" fill="none" xmlns="http://www.w3.org/2000/svg">
<path d="M141.736 0.000129166H12.2705C11.7986 0.000129166 11.3323 0.000129166 10.8616 0.00271249C10.4677 0.00529582 10.0768 0.0127875 9.67902 0.0191166C8.81486 0.029319 7.95274 0.105619 7.10013 0.247354C6.24872 0.392174 5.42398 0.66521 4.65381 1.05723C3.8846 1.45258 3.18176 1.96628 2.57078 2.57971C1.95658 3.19137 1.4446 3.89836 1.05451 4.6735C0.66334 5.44717 0.392106 6.27623 0.25018 7.13205C0.106894 7.98675 0.0297904 8.85131 0.0195614 9.71796C0.0075929 10.114 0.00630597 10.5113 0 10.9075V40.7632C0.00630597 41.1643 0.0075929 41.5528 0.0195614 41.9541C0.0298001 42.8207 0.106903 43.6852 0.25018 44.5398C0.391725 45.3961 0.662975 46.2256 1.05451 46.9995C1.44441 47.7722 1.95647 48.4763 2.57078 49.0846C3.17944 49.7008 3.88274 50.2148 4.65381 50.6071C5.42398 51.0002 6.24863 51.2748 7.10013 51.4219C7.95288 51.5625 8.81492 51.6388 9.67902 51.6503C10.0767 51.6591 10.4677 51.6641 10.8617 51.6641C11.3323 51.6667 11.7986 51.6667 12.2705 51.6667H141.736C142.199 51.6667 142.669 51.6667 143.131 51.6641C143.523 51.6641 143.925 51.6591 144.318 51.6503C145.18 51.6395 146.04 51.5631 146.891 51.4219C147.746 51.2738 148.573 50.9992 149.347 50.6071C150.117 50.2146 150.82 49.7006 151.428 49.0846C152.041 48.474 152.554 47.7703 152.949 46.9995C153.338 46.225 153.606 45.3956 153.746 44.5398C153.889 43.685 153.969 42.8207 153.985 41.954C153.99 41.5528 153.99 41.1643 153.99 40.7632C154 40.294 154 39.8273 154 39.3504V12.3177C154 11.8446 154 11.3754 153.99 10.9075C153.99 10.5113 153.99 10.114 153.985 9.71783C153.969 8.8511 153.889 7.98674 153.746 7.13192C153.606 6.27669 153.337 5.44778 152.949 4.67363C152.155 3.11981 150.895 1.855 149.347 1.0571C148.573 0.666042 147.746 0.393079 146.891 0.247224C146.041 0.104887 145.18 0.0285822 144.318 0.0189875C143.925 0.0126583 143.523 0.00503749 143.131 0.00258333C142.669 0 142.199 0 141.736 0L141.736 0.000129166Z" fill="black"/>
<path d="M10.8679 50.5365C10.4758 50.5365 10.0932 50.5315 9.70416 50.5227C8.89828 50.5122 8.09428 50.4418 7.29875 50.3122C6.55696 50.1839 5.83837 49.9453 5.16669 49.6043C4.50114 49.2662 3.89411 48.8228 3.36885 48.2912C2.83594 47.7659 2.39226 47.1566 2.0554 46.4874C1.71487 45.8139 1.4792 45.092 1.3566 44.3469C1.22425 43.5462 1.15266 42.7366 1.14245 41.925C1.13422 41.6526 1.12354 40.7457 1.12354 40.7457V10.9074C1.12354 10.9074 1.13486 10.0143 1.14245 9.75185C1.15226 8.94159 1.22346 8.13326 1.35544 7.33385C1.47828 6.58665 1.71415 5.86267 2.05489 5.18698C2.39045 4.51828 2.83161 3.90849 3.36125 3.38123C3.89034 2.84897 4.49934 2.40331 5.16605 2.06051C5.8362 1.72067 6.55344 1.48384 7.29373 1.35797C8.09189 1.22702 8.89869 1.15625 9.70737 1.14627L10.8686 1.13025H143.125L144.3 1.14665C145.101 1.15621 145.901 1.22642 146.692 1.35668C147.439 1.48417 148.164 1.72268 148.842 2.06438C150.178 2.75521 151.264 3.84817 151.95 5.19008C152.285 5.86114 152.517 6.57925 152.639 7.32003C152.772 8.12598 152.847 8.94065 152.862 9.75753C152.866 10.1233 152.866 10.5163 152.866 10.9074C152.877 11.3917 152.877 11.8527 152.877 12.3176V39.3503C152.877 39.8196 152.877 40.2775 152.866 40.7391C152.866 41.1592 152.866 41.544 152.861 41.94C152.846 42.7423 152.772 43.5425 152.641 44.3341C152.521 45.0846 152.287 45.8121 151.946 46.4911C151.607 47.153 151.166 47.7571 150.639 48.281C150.113 48.8155 149.505 49.2614 148.838 49.6017C148.162 49.9453 147.439 50.1847 146.692 50.3119C145.896 50.4423 145.092 50.5127 144.286 50.5226C143.901 50.5316 143.516 50.5362 143.131 50.5364L141.736 50.539L10.8679 50.5365Z" fill="white"/>
<path d="M18.5324 23.6505C18.5324 23.6505 7.90778 17.7745 7.28219 17.4313C6.6566 17.0881 6.03101 17.2961 6.03101 18.0137V43.3377C6.03101 43.8785 6.47935 44.1073 7.02153 43.8161C7.56371 43.5145 18.5324 37.4513 18.5324 37.4513C18.5324 37.4513 20.0234 36.6297 20.7637 36.2137C21.9628 35.5481 24.3609 34.2273 24.3609 34.2273C24.3609 34.2273 29.3135 31.4921 29.9703 31.1281C30.6272 30.7641 30.5647 30.2649 30.012 29.9841C29.4594 29.7033 24.3713 26.8641 24.3713 26.8641L18.5324 23.6505V23.6505Z" fill="url(#paint0_linear_72:237)"/>
<path d="M20.4929 30.5144L6.52133 17.3065C6.1981 17.3793 6 17.6289 6 18.0345V43.3064C6 43.6496 6.13554 43.8576 6.3128 43.9304L20.4929 30.5144Z" fill="url(#paint1_linear_72:237)"/>
<mask id="mask0_72:237" style="mask-type:alpha" maskUnits="userSpaceOnUse" x="6" y="17" width="15" height="27">
<path d="M20.4929 30.5144L6.52133 17.3065C6.1981 17.3793 6 17.6289 6 18.0345V43.3064C6 43.6496 6.13554 43.8576 6.3128 43.9304L20.4929 30.5144Z" fill="white"/>
</mask>
<g mask="url(#mask0_72:237)">
</g>
<mask id="mask1_72:237" style="mask-type:alpha" maskUnits="userSpaceOnUse" x="6" y="30" width="19" height="14">
<path d="M6.88449 43.8581L14.9651 39.4277C16.9565 38.3253 18.5309 37.4517 18.5309 37.4517L24.4011 34.3005L20.4911 30.5149L6.31104 43.9309C6.46743 43.9829 6.74895 43.9517 6.96791 43.8477" fill="white"/>
</mask>
<g mask="url(#mask1_72:237)">
<path d="M18.5101 23.6509C18.4893 23.7029 7.86464 17.8165 7.24948 17.5149C6.62388 17.1197 5.99829 17.3381 5.99829 18.0349V43.4109C5.99829 43.9725 6.44663 44.2013 6.93668 43.9309C7.53099 43.5981 18.4893 37.5349 18.5101 37.4829L24.349 34.2589C24.3177 34.3005 29.2599 31.5653 29.8751 31.2429C30.5841 30.8373 30.5111 30.3381 29.9793 30.0989C29.4059 29.7661 24.3177 26.9269 24.349 26.8749L18.5101 23.6509Z" fill="url(#paint2_linear_72:237)"/>
</g>
<path d="M7.2595 17.4209C6.98841 17.2857 6.72775 17.2441 6.50879 17.2961L20.4908 30.5249L24.359 26.8745L18.5306 23.6505C18.5306 23.6505 13.0358 20.6137 9.72016 18.7833L7.2595 17.4209Z" fill="url(#paint3_linear_72:237)"/>
<mask id="mask2_72:237" style="mask-type:alpha" maskUnits="userSpaceOnUse" x="6" y="17" width="19" height="14">
<path d="M7.2595 17.4209C6.98841 17.2857 6.72775 17.2441 6.50879 17.2961L20.4908 30.5249L24.359 26.8745L18.5306 23.6505C18.5306 23.6505 13.0358 20.6137 9.72016 18.7833L7.2595 17.4209Z" fill="white"/>
</mask>
<g mask="url(#mask2_72:237)">
</g>
<path d="M105.218 34.976L104.061 36.068C103.79 36.2135 103.529 36.3904 103.269 36.5047C102.466 36.8687 101.653 36.9623 100.923 36.9623C100.151 36.9623 98.9417 36.9103 97.7114 36.016C96.0014 34.8096 95.2507 32.7192 95.2507 30.9096C95.2507 27.1552 98.2953 25.3144 100.787 25.3144C101.653 25.3144 102.549 25.5328 103.269 25.9904C104.478 26.7912 104.791 27.8312 104.958 28.3928L99.2858 30.6912L97.4299 30.8368C98.0346 33.9152 100.109 35.704 102.403 35.704C103.55 35.704 104.395 35.3296 105.177 34.9448C105.177 34.9448 105.333 34.8616 105.218 34.976V34.976ZM101.757 28.7984C102.216 28.632 102.445 28.4864 102.445 28.1432C102.445 27.1656 101.371 26.0424 100.078 26.0424C99.1294 26.0424 97.336 26.8016 97.336 29.4328C97.336 29.8488 97.3882 30.2856 97.409 30.7224L101.757 28.7984V28.7984Z" fill="black"/>
<path d="M93.374 34.8408C93.374 35.7768 93.5409 35.9224 94.3333 35.9952C94.7503 36.0472 95.157 36.068 95.5636 36.1096L94.6774 36.64H90.4337C90.9863 35.912 91.0906 35.8392 91.0906 35.3608V34.82L91.0802 20.468H89.2034L91.0072 19.5944H94.448C93.6973 20.0312 93.4783 20.2912 93.3845 21.1336L93.374 34.8408" fill="black"/>
<path d="M86.7952 26.5C87.3478 26.9576 88.4948 27.9248 88.4948 29.7552C88.4948 31.544 87.4938 32.3864 86.4824 33.1872C86.1696 33.4992 85.8047 33.8424 85.8047 34.3728C85.8047 34.9032 86.1696 35.1944 86.4303 35.4128L87.2957 36.0888C88.3488 36.9832 89.308 37.8048 89.308 39.4688C89.308 41.736 87.1185 44.0344 82.9895 44.0344C79.5071 44.0344 77.8284 42.3704 77.8284 40.5816C77.8284 39.708 78.2559 38.4808 79.6843 37.6384C81.1753 36.7232 83.1876 36.5984 84.272 36.5256C83.9384 36.0888 83.5526 35.6312 83.5526 34.8824C83.5526 34.4768 83.6777 34.2272 83.7924 33.936C83.5317 33.9568 83.2606 33.988 83.0208 33.988C80.4767 33.988 79.0379 32.0744 79.0379 30.192C79.0379 29.0792 79.5383 27.852 80.581 26.9576C81.9469 25.824 83.5838 25.6264 84.8767 25.6264H89.8294L88.2862 26.5H86.7952ZM85.1061 37.2016C84.908 37.1704 84.7933 37.1704 84.5535 37.1704C84.3346 37.1704 83.0208 37.2224 82.0094 37.5656C81.4777 37.7632 79.9241 38.356 79.9241 40.1032C79.9241 41.8504 81.5924 43.1088 84.1886 43.1088C86.5137 43.1088 87.7441 41.9752 87.7441 40.4568C87.7441 39.188 86.9412 38.5224 85.1061 37.2016ZM85.7839 32.5424C86.3365 31.9912 86.3886 31.2216 86.3886 30.7848C86.3886 29.048 85.3668 26.3544 83.3753 26.3544C82.7601 26.3544 82.0824 26.6664 81.6966 27.1552C81.29 27.6544 81.1753 28.3096 81.1753 28.9336C81.1753 30.5456 82.1137 33.2184 84.1677 33.2184C84.7621 33.2184 85.4085 32.9272 85.7839 32.5424V32.5424Z" fill="black"/>
<path d="M71.8226 36.9623C67.996 36.9623 65.9524 33.9464 65.9524 31.2216C65.9524 28.0392 68.5278 25.3144 72.1875 25.3144C75.7221 25.3144 77.9429 28.112 77.9429 31.0552C77.9429 33.9256 75.7534 36.9623 71.8226 36.9623ZM74.815 34.9968C75.3989 34.2168 75.5448 33.2392 75.5448 32.2928C75.5448 30.14 74.5335 26.0424 71.5306 26.0424C70.7382 26.0424 69.9353 26.3544 69.3515 26.8744C68.4131 27.7272 68.2358 28.7984 68.2358 29.8488C68.2358 32.2616 69.414 36.2344 72.3439 36.2344C73.3031 36.2344 74.2624 35.7768 74.815 34.9968Z" fill="black"/>
<path d="M58.9978 36.9623C55.1713 36.9623 53.1277 33.9464 53.1277 31.2216C53.1277 28.0392 55.703 25.3144 59.3628 25.3144C62.8973 25.3144 65.1182 28.112 65.1182 31.0552C65.1182 33.9256 62.9286 36.9623 58.9978 36.9623ZM61.9902 34.9968C62.5741 34.2168 62.7201 33.2392 62.7201 32.2928C62.7201 30.14 61.6983 26.0424 58.7059 26.0424C57.903 26.0424 57.1106 26.3544 56.5267 26.8744C55.5779 27.7272 55.4111 28.7984 55.4111 29.8488C55.4111 32.2616 56.5997 36.2344 59.5191 36.2344C60.4784 36.2344 61.4376 35.7768 61.9902 34.9968Z" fill="black"/>
<path d="M51.5427 36.2448L48.3001 36.9936C46.9864 37.2016 45.8082 37.3888 44.557 37.3888C38.3011 37.3784 35.9238 32.7608 35.9238 29.1416C35.9238 24.732 39.302 20.6344 45.0783 20.6344C46.2982 20.6344 47.4764 20.8112 48.5503 21.1128C50.2499 21.5912 51.0423 22.184 51.5427 22.5272L49.6555 24.3264L48.8631 24.5032L49.4262 23.5984C48.6546 22.8496 47.247 21.456 44.5778 21.456C41.0015 21.456 38.3011 24.1808 38.3011 28.164C38.3011 32.4384 41.3769 36.4632 46.3191 36.4632C47.7683 36.4632 48.5191 36.172 49.1968 35.9016V32.2304L45.7769 32.4176L47.5911 31.44H52.3977L51.8138 32.012C51.6574 32.1472 51.6366 32.1888 51.5844 32.376C51.5636 32.584 51.5427 33.2392 51.5427 33.4784V36.2448" fill="black"/>
<path d="M112.215 35.08V41.2263H110.995V25.5952H112.215V27.3736C113.007 26.2192 114.467 25.3144 116.145 25.3144C119.169 25.3144 121.213 27.6128 121.213 31.2424C121.213 34.8512 119.18 37.1912 116.145 37.1912C114.561 37.1912 113.132 36.3696 112.215 35.08ZM119.962 31.336C119.962 28.5696 118.533 26.4584 115.989 26.4584C114.415 26.4584 112.903 27.7064 112.246 28.7984V33.8528C112.903 34.9448 114.415 36.2344 115.989 36.2344C118.533 36.2344 119.962 34.1024 119.962 31.336Z" fill="black"/>
<path d="M122.881 21.2584H124.132V36.9624H122.881V21.2584Z" fill="black"/>
<path d="M137.739 40.1447C138 40.2591 138.448 40.3319 138.729 40.3319C139.48 40.3319 139.991 40.0303 140.46 38.9487L141.346 36.9311L136.54 25.5223H137.906L142.024 35.4127L146.111 25.5223H147.488L141.628 39.3231C141.023 40.7479 140.064 41.4343 138.75 41.4343C138.354 41.4343 137.833 41.3615 137.53 41.2679L137.739 40.1447" fill="black"/>
<path d="M134.288 36.952C134.204 36.5568 134.142 36.2136 134.1 35.9224C134.058 35.6312 134.038 35.34 134.038 35.0384C133.621 35.652 133.026 36.172 132.255 36.5776C131.494 36.9832 130.764 37.1808 129.773 37.1808C128.574 37.1808 127.646 36.8896 126.989 36.2864C126.332 35.6936 125.999 34.8824 125.999 33.8632C125.999 32.844 126.478 32.012 127.438 31.3776C128.397 30.7432 129.638 30.4208 131.17 30.4208H134.027V29.0064C134.027 28.1952 133.746 27.5504 133.193 27.0928C132.64 26.6248 131.858 26.396 130.847 26.396C129.919 26.396 129.168 26.6144 128.595 27.0304C128.032 27.4568 127.74 27.9872 127.74 28.6216H126.489L126.468 28.5592C126.426 27.696 126.812 26.9472 127.657 26.292C128.491 25.6368 129.575 25.3144 130.92 25.3144C132.255 25.3144 133.339 25.6368 134.152 26.2816C134.966 26.916 135.372 27.8416 135.372 29.0376V34.6536C135.372 35.0592 135.393 35.444 135.445 35.8288C135.497 36.2136 135.581 36.588 135.685 36.952H134.288V36.952ZM129.93 36.1304C130.972 36.1304 131.723 35.8912 132.484 35.4336C133.245 34.976 133.756 34.3728 134.027 33.6448V31.4504H131.149C130.055 31.4504 129.148 31.6896 128.428 32.1888C127.709 32.6776 127.354 33.2704 127.354 33.9672C127.354 34.6224 127.584 35.1424 128.042 35.5376C128.512 35.9328 129.137 36.1304 129.93 36.1304V36.1304Z" fill="black"/>
<path d="M35.5068 10.6816C35.5068 8.4456 37.3002 7 39.5315 7C41.0225 7 42.0026 7.6656 42.6177 8.4768L41.5229 9.0592C41.1059 8.5288 40.3865 8.1128 39.5315 8.1128C38.0196 8.1128 36.8831 9.184 36.8831 10.6816C36.8936 12.1688 38.0196 13.2504 39.5315 13.2504C40.3135 13.2504 41.0016 12.9176 41.3457 12.6056V11.5136H39.0519V10.4112H42.6803V13.0632C41.9296 13.8432 40.8556 14.3632 39.5315 14.3632C37.3002 14.3736 35.5068 12.9176 35.5068 10.6816Z" fill="black"/>
<path d="M44.4216 14.2696V7.11438H49.7496V8.21678H45.7875V10.0576H49.6662V11.1704H45.7875V13.1672H49.7496V14.2696H44.4216Z" fill="black"/>
<path d="M53.3674 14.2696V8.21678H51.0527V7.11438H57.0272V8.21678H54.7125V14.2696H53.3674" fill="black"/>
<path d="M61.813 7.11438H63.1164V14.2696H61.813V7.11438Z" fill="black"/>
<path d="M66.8491 14.2696V8.21678H64.5344V7.11438H70.5088V8.21678H68.1941V14.2696H66.8491" fill="black"/>
<path d="M74.9714 10.692C74.9714 8.57038 76.6084 7.01038 78.9439 7.01038C81.2586 7.01038 82.906 8.57038 82.906 10.692C82.906 12.8136 81.2482 14.3736 78.9439 14.3736C76.6084 14.3736 74.9714 12.8136 74.9714 10.692ZM81.488 10.6296C81.488 9.17358 80.4871 8.08158 78.9335 8.08158C77.3695 8.08158 76.379 9.17358 76.379 10.6296C76.379 12.0752 77.3695 13.1776 78.9335 13.1776C80.4871 13.1776 81.488 12.0856 81.488 10.6296Z" fill="black"/>
<path d="M89.7561 14.2696L85.7627 9.15278V14.2696H84.4177V7.11438H85.794L89.704 12.0752V7.11438H91.049V14.2696H89.7561Z" fill="black"/>
<defs>
<linearGradient id="paint0_linear_72:237" x1="11.7943" y1="25.69" x2="20.6177" y2="38.6712" gradientUnits="userSpaceOnUse">
<stop stop-color="#FF177B"/>
<stop offset="1" stop-color="#FFEC73"/>
</linearGradient>
<linearGradient id="paint1_linear_72:237" x1="15.5633" y1="7.54461" x2="-0.274172" y2="41.2626" gradientUnits="userSpaceOnUse">
<stop stop-color="#064AA2"/>
<stop offset="1" stop-color="#63FFD4"/>
</linearGradient>
<linearGradient id="paint2_linear_72:237" x1="20.3778" y1="22.6682" x2="0.830711" y2="34.3916" gradientUnits="userSpaceOnUse">
<stop stop-color="#FF4521"/>
<stop offset="1" stop-color="#8A33DB"/>
</linearGradient>
<linearGradient id="paint3_linear_72:237" x1="9.15259" y1="13.0572" x2="16.1292" y2="31.2378" gradientUnits="userSpaceOnUse">
<stop stop-color="#00A3B5"/>
<stop offset="1" stop-color="#D6FFA1"/>
</linearGradient>
</defs>
</svg>
