<svg width="222" height="45" viewBox="0 0 222 45" fill="none" xmlns="http://www.w3.org/2000/svg">
<path d="M65.3608 43.3802C58.256 42.4172 53.755 40.6436 52.339 38.1841C51.9165 37.4574 51.8011 36.8021 51.9686 36.2379C52.1572 35.6332 52.666 35.1189 53.4944 34.6973C53.5703 34.6738 53.714 34.5256 53.714 34.3041C53.714 34.0525 53.5068 33.859 53.2547 33.859C53.1622 33.859 53.0739 33.8684 52.982 33.8815C52.2846 34.0946 51.2728 34.3152 50.0909 34.4878C46.7047 35.0135 43.1197 35.1731 39.4719 34.9505C24.0688 33.9872 11.8963 26.5296 12.3546 18.3235C12.511 15.5333 14.1671 12.8379 17.0172 10.7455C21.2201 7.65285 25.3175 6.94505 27.5085 6.82692C27.7831 6.81387 27.9405 6.5887 27.9405 6.36777C27.9405 6.14424 27.7831 5.93311 27.4945 5.90569C24.4601 5.70663 16.1634 6.29925 9.44302 9.45712C3.6123 12.1918 0.264502 16.1243 0.0133433 20.503C-0.223808 24.9378 2.7067 29.2799 8.28658 32.7383C13.8026 36.1462 21.2595 38.3026 29.2816 38.7881C31.9205 38.9598 34.5615 38.9334 37.132 38.7092C37.2678 38.7242 37.3708 38.7751 37.4499 38.8678C40.3502 43.5515 50.1841 45.4547 65.3093 44.2848C65.5588 44.2848 65.7572 44.0773 65.7572 43.839C65.7442 43.5238 65.493 43.3933 65.3608 43.3802Z" fill="white"/>
<path d="M59.8533 6.14199C54.3604 2.73491 46.9444 0.605005 38.9551 0.108816C37.8835 0.0406226 36.7999 0.00133006 35.753 0.00133006C25.9326 -0.0632914 19.7858 2.23873 15.4962 4.30791C15.3525 4.3865 15.2649 4.55536 15.2649 4.7135C15.2649 4.96484 15.4618 5.17332 15.7055 5.17332C15.7317 5.17332 15.8249 5.15838 15.8511 5.14702C19.4068 4.11567 21.7868 4.01728 25.3308 3.88933C29.6129 3.73411 33.1138 4.30791 35.6881 4.83203C47.9008 7.26361 56.1801 13.7059 55.8103 20.4733C55.6562 23.2199 54.06 25.8282 51.1986 27.986C47.2497 30.9962 43.2197 31.7704 40.5516 31.8983C40.487 31.8983 40.3819 31.9117 40.3819 31.9117C40.1493 31.9406 39.9806 32.1341 39.9806 32.3582C39.9806 32.6066 40.1642 32.7888 40.3819 32.817C40.4481 32.8255 40.487 32.8255 40.5392 32.8255C43.6764 33.1037 52.2413 32.3426 58.7428 29.269C64.5357 26.5448 67.8559 22.6474 68.0907 18.3006C68.3406 13.8894 65.411 9.56985 59.8533 6.14199Z" fill="white"/>
<path d="M62.2341 5.86351C62.2341 6.53758 62.7729 7.04549 63.4132 7.04549C64.0502 7.04549 64.5826 6.53758 64.5826 5.86553C64.5826 5.20022 64.0502 4.69702 63.4132 4.69702C62.7729 4.69702 62.2341 5.20022 62.2341 5.86351ZM62.4492 5.86553C62.4502 5.30133 62.8687 4.87161 63.4132 4.87161C63.956 4.87161 64.3702 5.30301 64.3702 5.86553C64.3702 6.4395 63.953 6.87091 63.4132 6.87091C62.8687 6.87091 62.4492 6.43748 62.4492 5.86553ZM62.9562 6.55275H63.1693V5.9663L63.3968 5.96226L63.7677 6.55275H63.9915L63.6039 5.94945C63.8056 5.92721 63.9601 5.82744 63.9601 5.57534C63.9601 5.31245 63.8076 5.18471 63.4886 5.18471H62.9565V6.55275H62.9562ZM63.1693 5.35627H63.4497C63.5905 5.35627 63.7496 5.38424 63.7496 5.56556C63.7496 5.78565 63.5791 5.79138 63.3931 5.79138H63.1696V5.35627H63.1693Z" fill="white"/>
<path d="M194.552 15.2457C192.999 14.6586 191.183 14.5308 189.913 14.5308H189.758C183.04 14.5768 179.519 18.2243 179.519 25.0699C179.519 28.047 180.083 30.261 181.319 32.0511C182.416 33.7055 184.356 35.6043 189.647 35.6043H189.759C196.476 35.5614 199.888 31.9916 199.888 24.9845C199.888 18.6607 196.977 16.2002 194.552 15.2457ZM189.759 31.1162H189.728C187.647 31.1162 186.578 29.2935 186.578 25.0357C186.578 24.0232 186.578 21.6404 187.283 20.4078C187.835 19.4263 188.724 18.8688 189.758 18.8688C190.983 18.8688 191.732 19.6748 191.917 19.9264C192.606 20.7515 192.952 22.4013 192.952 24.9601C192.953 29.249 191.995 31.1017 189.759 31.1162Z" fill="white"/>
<path d="M126.015 15.3458C125.938 15.72 125.123 18.8975 125.059 19.2878C124.994 19.6123 125.356 19.8986 125.684 19.8986C127.662 19.8986 127.735 19.9255 127.735 21.9046V34.5599C127.735 34.9041 128.02 35.1868 128.362 35.1868H134.376C134.738 35.1868 134.985 34.9217 134.985 34.5599V15.3561C134.985 14.987 134.738 14.7339 134.376 14.7339H126.622C126.281 14.7339 126.095 15.0181 126.015 15.3458Z" fill="white"/>
<path d="M103.025 14.7339C102.702 14.7339 102.494 14.9529 102.418 15.3458C102.353 15.7299 102.136 16.965 101.45 19.2862C101.357 19.6124 101.7 19.8986 102.027 19.8986C104.015 19.8986 104.078 19.9716 104.078 21.9046C104.078 26.2027 103.546 31.3209 105.771 33.5297C106.989 34.9041 108.668 35.6071 110.715 35.6071C113.16 35.6071 114.662 34.6406 115.931 33.6757C115.931 34.0811 115.914 34.5604 115.914 34.5604C115.914 34.9047 116.198 35.1873 116.527 35.1873H122.162C122.506 35.1873 122.773 34.9047 122.773 34.5604V15.3463C122.773 14.9994 122.523 14.7344 122.162 14.7344H116.462C116.134 14.7344 115.85 14.9875 115.85 15.3282C115.85 15.3282 115.914 27.455 115.836 29.2512C115.836 29.259 114.19 30.3389 113.33 30.3389C111.217 30.3389 110.918 28.0767 110.918 25.6162L110.934 15.3463C110.934 15.0186 110.67 14.7344 110.327 14.7344H103.025V14.7339Z" fill="white"/>
<path d="M165.284 16.5103C165.284 16.0563 165.268 15.3891 165.268 15.3456C165.268 15.0179 165.007 14.7337 164.658 14.7337H157.879C157.359 14.7337 157.095 14.8766 156.927 15.2012C156.769 15.5433 155.203 18.802 155.092 18.991C154.938 19.3171 155.092 19.8979 155.656 19.8979H155.967C158.397 19.8979 158.431 19.8979 158.431 21.9039C158.431 21.9039 158.397 34.5162 158.397 34.5923C158.397 34.9216 158.678 35.1985 159.009 35.1985C159.085 35.1985 164.739 35.1669 164.739 35.1669C165.068 35.1669 165.35 34.9034 165.35 34.5592C165.35 34.5307 165.35 23.667 165.332 21.013C166.055 20.5321 166.864 19.9973 167.9 19.9973C168.434 19.9973 168.86 20.1599 169.171 20.501C169.875 21.204 169.971 22.5116 169.952 23.2265C169.934 24.119 169.971 34.5923 169.971 34.5923C169.971 34.9335 170.251 35.1985 170.592 35.1985C170.643 35.1985 175.916 35.1669 176.262 35.1669C176.607 35.1669 176.872 34.9034 176.872 34.5592C176.872 34.5307 176.859 23.7908 176.859 23.7908C176.823 20.3788 176.794 18.5039 175.808 16.8836C174.899 15.3446 173.227 14.5303 170.97 14.5303C168.808 14.5308 166.944 15.5433 165.284 16.5103Z" fill="white"/>
<path d="M203.066 17.599C202.676 18.1498 202.019 19.3171 202.019 21.0135C202.019 25.1744 205.273 26.4241 207.011 27.081C207.026 27.081 207.921 27.4382 208.422 27.6095C209.345 27.9041 210.958 28.4238 210.958 29.5591C210.958 30.3682 210.114 31.1954 208.234 31.1954C207.118 31.1954 205.621 30.7906 204.446 30.1828C203.898 29.9028 203.614 29.6678 203.178 29.3251C203.081 29.2505 202.943 29.1988 202.799 29.1988C202.643 29.1988 202.491 29.2598 202.361 29.3877C202.25 29.4949 202.19 29.6823 202.19 29.8081C202.205 29.9494 202.02 32.8623 201.97 33.3318C201.955 33.4721 201.938 33.674 201.938 33.7506C201.938 33.9887 202.019 34.2227 202.3 34.3221C204.055 35.0101 205.789 35.6069 208.483 35.6069C215.608 35.6069 217.504 32.3664 217.865 29.5591C217.908 29.1527 217.896 28.9829 217.896 28.7013C217.896 24.4616 214.798 23.2612 212.881 22.5271C211.49 22.0146 211.035 21.8567 211.035 21.8567C209.737 21.4235 208.89 21.0647 208.89 20.238C208.89 20.0175 209.002 18.8688 211.285 18.8688C213.387 18.8688 214.746 19.7504 215.578 20.2691C215.75 20.3793 215.876 20.3793 215.938 20.3793C216.217 20.3793 216.468 20.1738 216.516 19.8756C216.516 19.843 216.86 16.0439 216.86 16.0439C216.86 15.7478 216.659 15.4941 216.378 15.4512C216.341 15.4346 216.233 15.403 216.123 15.372C214.634 14.9687 213.122 14.5308 210.755 14.5308C208.36 14.5308 204.963 14.8584 203.066 17.599Z" fill="white"/>
<path d="M74 22.2006C74 33.9567 82.1427 35.7136 86.5393 35.7136C88.0306 35.7136 90.1429 35.4041 90.704 35.1572C91.3472 34.8574 91.1142 34.3009 90.9551 34.1425C90.8324 34.0017 87.4337 30.6312 87.4337 30.6312C87.3245 30.5225 87.1971 30.448 87.0255 30.448C86.9173 30.4656 86.7759 30.4656 86.7759 30.4656C85.6345 30.4656 84.0204 30.0887 82.9518 28.3406C81.734 26.4242 81.5743 23.8519 81.5743 21.5783C81.5743 15.1075 84.1457 13.2491 86.6651 13.2491C88.794 13.2491 91.8797 14.0023 91.8797 21.7642C91.8797 22.874 91.8168 24.119 91.7076 24.9602H85.3682C84.9762 24.9602 84.4572 25.4401 84.9283 26.0012C84.9283 26.0012 95.436 36.4632 95.5899 36.6242C95.7308 36.7795 95.8863 36.8385 96.0449 36.8385H102.966C103.297 36.8385 103.578 36.589 103.578 36.2298C103.578 36.0729 103.514 35.9181 103.388 35.7944C103.388 35.7944 97.596 30.0266 97.5794 30.0105C97.5659 29.9955 97.4702 29.921 97.4551 29.8692C97.4551 29.8392 97.4868 29.7781 97.5014 29.7424C98.7863 27.503 99.3937 24.7878 99.3937 21.5297C99.3937 19.4254 99.0032 14.1612 95.4802 10.9025C93.4938 9.06173 90.3472 8 86.856 8C78.8053 7.99896 74 13.304 74 22.2006Z" fill="white"/>
<path d="M153.461 14.7339H139.168C138.823 14.7339 138.65 14.9529 138.539 15.3561C138.431 15.8236 137.571 18.7887 137.571 19.1149C137.571 19.4576 137.852 19.7226 138.18 19.7226C138.213 19.7226 144.318 19.6605 144.678 19.6605C144.289 20.4406 137.338 34.3011 137.338 34.3011C137.302 34.359 137.272 34.4677 137.272 34.5734C137.257 34.9041 137.54 35.1868 137.881 35.1868H155.216C155.563 35.1868 155.83 34.9041 155.83 34.5599L155.844 30.8234C155.844 30.4781 155.578 30.2157 155.234 30.2157H155.249C155.249 30.2157 148.421 30.4 146.574 30.4496C146.889 29.8093 149.255 24.9779 150.158 23.1967C151.052 21.4392 153.825 16.0125 154.013 15.6403C154.234 15.1563 153.824 14.7339 153.461 14.7339Z" fill="white"/>
<path d="M217.641 13.6167C217.641 14.652 218.477 15.4337 219.469 15.4337C220.456 15.4337 221.283 14.652 221.283 13.6167C221.283 12.601 220.456 11.825 219.47 11.8281C218.477 11.825 217.641 12.601 217.641 13.6167ZM217.974 13.6167C217.974 12.7548 218.624 12.0937 219.468 12.0937C220.31 12.0937 220.955 12.7579 220.955 13.6167C220.955 14.4998 220.307 15.1671 219.468 15.1671C218.624 15.1671 217.974 14.4998 217.974 13.6167ZM218.761 14.6774H219.091V13.7761L219.447 13.7735L220.015 14.6774H220.368L219.768 13.7507C220.078 13.7171 220.319 13.5618 220.319 13.1746C220.319 12.7744 220.084 12.5777 219.583 12.5777H218.762V14.6774H218.761ZM219.091 12.8396H219.527C219.744 12.8396 219.989 12.8842 219.989 13.1611C219.989 13.4976 219.726 13.5049 219.439 13.5049H219.091V12.8396Z" fill="white"/>
</svg>
