<svg width="481" height="94" viewBox="0 0 481 94" fill="none" xmlns="http://www.w3.org/2000/svg">
<path d="M392.942 23.6178C387.881 21.7044 381.96 21.2876 377.821 21.2876H377.318C355.419 21.4378 343.942 33.3268 343.942 55.6402C343.942 65.3441 345.78 72.5608 349.809 78.3956C353.387 83.7884 359.707 89.9775 376.953 89.9775H377.319C399.213 89.8375 410.335 78.2016 410.335 55.3617C410.335 34.7492 400.847 26.7293 392.942 23.6178ZM377.319 75.3483H377.218C370.435 75.3483 366.951 69.4072 366.951 55.5288C366.951 52.2284 366.951 44.4615 369.248 40.444C371.048 37.2448 373.945 35.4275 377.318 35.4275C381.311 35.4275 383.75 38.0547 384.353 38.8748C386.601 41.5644 387.728 46.9419 387.728 55.2824C387.73 69.2621 384.609 75.301 377.319 75.3483Z" fill="#A91B1B"/>
<path d="M169.543 23.9433C169.294 25.1632 166.636 35.5201 166.428 36.7924C166.217 37.8503 167.397 38.7835 168.467 38.7835C174.913 38.7835 175.152 38.8712 175.152 45.3219V86.5723C175.152 87.6944 176.079 88.6157 177.196 88.6157H196.798C197.978 88.6157 198.783 87.7518 198.783 86.5723V23.9771C198.783 22.774 197.978 21.9489 196.798 21.9489H171.524C170.411 21.9489 169.806 22.8752 169.543 23.9433Z" fill="#A91B1B"/>
<path d="M94.608 21.9489C93.5537 21.9489 92.8774 22.6626 92.6282 23.9433C92.4181 25.1953 91.7113 29.2213 89.4739 36.7873C89.1722 37.8504 90.2875 38.7834 91.3553 38.7834C97.8352 38.7834 98.0402 39.0214 98.0402 45.3219C98.0402 59.3319 96.3046 76.0146 103.559 83.2145C107.529 87.6944 113 89.9858 119.675 89.9858C127.643 89.9858 132.538 86.8355 136.677 83.6903C136.677 85.0115 136.619 86.574 136.619 86.574C136.619 87.6961 137.545 88.6173 138.617 88.6173H156.986C158.108 88.6173 158.976 87.6961 158.976 86.574V23.945C158.976 22.8145 158.162 21.9506 156.986 21.9506H138.406C137.338 21.9506 136.411 22.7757 136.411 23.8859C136.411 23.8859 136.621 63.4136 136.367 69.2686C136.367 69.2939 131.002 72.8137 128.199 72.8137C121.309 72.8137 120.334 65.44 120.334 57.4201L120.388 23.945C120.388 22.8769 119.525 21.9506 118.409 21.9506H94.608V21.9489Z" fill="#A91B1B"/>
<path d="M297.541 27.7401C297.541 26.2603 297.492 24.0853 297.492 23.9436C297.492 22.8755 296.639 21.9491 295.502 21.9491H273.405C271.712 21.9491 270.849 22.4148 270.303 23.4728C269.786 24.5881 264.683 35.2099 264.322 35.8258C263.818 36.8888 264.322 38.782 266.159 38.782H267.174C275.093 38.782 275.205 38.782 275.205 45.3205C275.205 45.3205 275.093 86.4308 275.093 86.6788C275.093 87.752 276.01 88.6547 277.088 88.6547C277.336 88.6547 295.765 88.5518 295.765 88.5518C296.838 88.5518 297.758 87.6929 297.758 86.5709C297.758 86.4781 297.758 51.0675 297.7 42.4166C300.056 40.849 302.694 39.106 306.068 39.106C307.809 39.106 309.199 39.6358 310.213 40.7478C312.506 43.0392 312.821 47.3014 312.758 49.6316C312.701 52.5406 312.821 86.6788 312.821 86.6788C312.821 87.7908 313.733 88.6547 314.845 88.6547C315.011 88.6547 332.198 88.5518 333.325 88.5518C334.45 88.5518 335.315 87.6929 335.315 86.5709C335.315 86.4781 335.271 51.4708 335.271 51.4708C335.154 40.3496 335.061 34.238 331.847 28.9566C328.882 23.9402 323.432 21.286 316.077 21.286C309.029 21.2877 302.955 24.5881 297.541 27.7401Z" fill="#A91B1B"/>
<path d="M420.695 31.2885C419.422 33.0838 417.282 36.8887 417.282 42.4181C417.282 55.981 427.887 60.0542 433.553 62.1955C433.602 62.1955 436.518 63.3597 438.152 63.9182C441.16 64.8783 446.418 66.5724 446.418 70.2728C446.418 72.9101 443.667 75.6064 437.538 75.6064C433.901 75.6064 429.021 74.287 425.192 72.306C423.407 71.3932 422.48 70.6271 421.058 69.5101C420.745 69.2671 420.292 69.0984 419.824 69.0984C419.316 69.0984 418.819 69.2975 418.395 69.7142C418.034 70.0635 417.839 70.6744 417.839 71.0844C417.887 71.545 417.283 81.0397 417.122 82.5701C417.073 83.0274 417.019 83.6854 417.019 83.9352C417.019 84.7113 417.282 85.474 418.199 85.798C423.918 88.0405 429.57 89.986 438.352 89.986C461.576 89.986 467.756 79.4232 468.93 70.2728C469.071 68.9482 469.034 68.3948 469.034 67.4769C469.034 53.6575 458.935 49.7446 452.688 47.3519C448.152 45.6815 446.671 45.1668 446.671 45.1668C442.438 43.7545 439.677 42.5852 439.677 39.8905C439.677 39.1717 440.043 35.4275 447.484 35.4275C454.335 35.4275 458.766 38.3011 461.478 39.9918C462.039 40.3512 462.449 40.3512 462.652 40.3512C463.559 40.3512 464.379 39.6813 464.534 38.7094C464.534 38.6031 465.656 26.2197 465.656 26.2197C465.656 25.2545 465.002 24.4277 464.085 24.2877C463.964 24.2337 463.613 24.1308 463.252 24.0295C458.401 22.7151 453.471 21.2876 445.757 21.2876C437.952 21.2876 426.879 22.3557 420.695 31.2885Z" fill="#A91B1B"/>
<path d="M0 46.2871C0 84.6066 26.5413 90.3334 40.8721 90.3334C45.7333 90.3334 52.6182 89.3244 54.447 88.5195C56.5437 87.5425 55.7844 85.7287 55.2657 85.2123C54.8657 84.7534 43.7875 73.7671 43.7875 73.7671C43.4315 73.4128 43.0163 73.1698 42.4569 73.1698C42.1044 73.2272 41.6434 73.2271 41.6434 73.2271C37.9229 73.2271 32.6618 71.9988 29.1787 66.3006C25.2091 60.0541 24.6887 51.6697 24.6887 44.2589C24.6887 23.1672 33.0703 17.1096 41.2823 17.1096C48.2215 17.1096 58.2793 19.5647 58.2793 44.8647C58.2793 48.4823 58.0742 52.5404 57.7183 55.2823H37.0551C35.7771 55.2823 34.0855 56.8465 35.6212 58.6755C35.6212 58.6755 69.8711 92.7767 70.3728 93.3014C70.8322 93.8076 71.339 94 71.8559 94H94.4158C95.4938 94 96.4108 93.1867 96.4108 92.0157C96.4108 91.5044 96.2006 90.9999 95.7921 90.5966C95.7921 90.5966 76.912 71.7963 76.8577 71.744C76.8137 71.6951 76.5018 71.4521 76.4527 71.2833C76.4527 71.1855 76.556 70.9864 76.6035 70.87C80.7917 63.5705 82.7714 54.7204 82.7714 44.1003C82.7714 37.2413 81.4985 20.0827 70.0152 9.4609C63.5405 3.46073 53.2843 4.9386e-07 41.9044 4.9386e-07C15.6631 -0.00337419 0 17.2885 0 46.2871Z" fill="#A91B1B"/>
<path d="M259.006 21.9489H212.418C211.291 21.9489 210.727 22.6626 210.366 23.9771C210.013 25.5007 207.212 35.1658 207.212 36.2288C207.212 37.3458 208.129 38.2098 209.196 38.2098C209.303 38.2098 229.204 38.0073 230.378 38.0073C229.11 40.5501 206.452 85.7286 206.452 85.7286C206.335 85.9176 206.237 86.2719 206.237 86.6162C206.188 87.6944 207.11 88.6157 208.222 88.6157H264.726C265.857 88.6157 266.727 87.6944 266.727 86.5723L266.774 74.3931C266.774 73.2676 265.906 72.4121 264.784 72.4121H264.833C264.833 72.4121 242.578 73.0128 236.556 73.1748C237.585 71.0876 245.296 55.3396 248.24 49.5335C251.152 43.805 260.191 26.1166 260.806 24.9034C261.526 23.3257 260.189 21.9489 259.006 21.9489Z" fill="#A91B1B"/>
<path d="M468.2 18.3077C468.2 21.6824 470.926 24.2303 474.16 24.2303C477.377 24.2303 480.073 21.6824 480.073 18.3077C480.073 14.9971 477.377 12.4678 474.165 12.4779C470.926 12.4678 468.2 14.9971 468.2 18.3077ZM469.287 18.3077C469.287 15.4983 471.407 13.3435 474.158 13.3435C476.902 13.3435 479.004 15.5084 479.004 18.3077C479.004 21.1863 476.892 23.3613 474.158 23.3613C471.407 23.3613 469.287 21.1863 469.287 18.3077ZM471.851 21.765H472.929V18.8274L474.087 18.8189L475.939 21.765H477.09L475.136 18.7447C476.146 18.635 476.931 18.1288 476.931 16.8667C476.931 15.5624 476.165 14.9212 474.533 14.9212H471.854V21.765H471.851ZM472.929 15.775H474.349C475.056 15.775 475.856 15.9201 475.856 16.8228C475.856 17.9196 474.997 17.9432 474.061 17.9432H472.929V15.775Z" fill="#A91B1B"/>
</svg>
